0
SECTION
2
HEADER
9
$INSUNITS
70
4
9
$ACADVER
1
AC1014
9
$HANDSEED
5
FFFF
0
ENDSEC
0
SECTION
2
TABLES
0
TABLE
2
VPORT
5
8
100
AcDbSymbolTable
0
ENDTAB
0
TABLE
2
LTYPE
5
5
100
AcDbSymbolTable
0
LTYPE
5
14
100
AcDbSymbolTableRecord
100
AcDbLinetypeTableRecord
2
BYBLOCK
70
0
0
LTYPE
5
15
100
AcDbSymbolTableRecord
100
AcDbLinetypeTableRecord
2
BYLAYER
70
0
0
ENDTAB
0
TABLE
2
LAYER
5
2
100
AcDbSymbolTable
70
2
0
LAYER
5
50
100
AcDbSymbolTableRecord
100
AcDbLayerTableRecord
2
0
70
0
6
CONTINUOUS
0
ENDTAB
0
TABLE
2
STYLE
5
3
100
AcDbSymbolTable
70
1
0
STYLE
5
11
100
AcDbSymbolTableRecord
100
AcDbTextStyleTableRecord
2
STANDARD
70
0
0
ENDTAB
0
TABLE
2
VIEW
5
6
100
AcDbSymbolTable
70
0
0
ENDTAB
0
TABLE
2
UCS
5
7
100
AcDbSymbolTable
70
0
0
ENDTAB
0
TABLE
2
APPID
5
9
100
AcDbSymbolTable
70
2
0
APPID
5
12
100
AcDbSymbolTableRecord
100
AcDbRegAppTableRecord
2
ACAD
70
0
0
ENDTAB
0
TABLE
2
DIMSTYLE
5
A
100
AcDbSymbolTable
70
1
0
ENDTAB
0
TABLE
2
BLOCK_RECORD
5
1
100
AcDbSymbolTable
70
1
0
BLOCK_RECORD
5
1F
100
AcDbSymbolTableRecord
100
AcDbBlockTableRecord
2
*MODEL_SPACE
0
BLOCK_RECORD
5
1B
100
AcDbSymbolTableRecord
100
AcDbBlockTableRecord
2
*PAPER_SPACE
0
ENDTAB
0
ENDSEC
0
SECTION
2
BLOCKS
0
BLOCK
5
20
100
AcDbEntity
100
AcDbBlockBegin
2
*MODEL_SPACE
0
ENDBLK
5
21
100
AcDbEntity
100
AcDbBlockEnd
0
BLOCK
5
1C
100
AcDbEntity
100
AcDbBlockBegin
2
*PAPER_SPACE
0
ENDBLK
5
1D
100
AcDbEntity
100
AcDbBlockEnd
0
ENDSEC
0
SECTION
2
ENTITIES
0
LWPOLYLINE
5
100
100
AcDbEntity
8
0
100
AcDbPolyline
90
8
70
1
43
0.0
10
64.723836165857151
20
-41.490317817906408
10
-62.87616383414283
20
-41.490317817906224
42
-0.41421356237309453
10
-70.876163834142815
20
-33.490317817906224
10
-70.876163834142744
20
21.409682182093782
42
-0.41421356237309481
10
-62.876163834142737
20
29.409682182093775
10
64.72383616585725
20
29.409682182093597
42
-0.41421356237309587
10
72.72383616585725
20
21.409682182093562
10
72.723836165857165
20
-33.490317817906437
42
-0.41421356237309537
0
LWPOLYLINE
5
101
100
AcDbEntity
8
0
100
AcDbPolyline
90
8
70
1
43
0.0
10
14.923836165857235
20
35.409682182092951
10
-13.076163834142772
20
35.409682182093
42
-0.41421356237309503
10
-21.076163834142754
20
43.409682182093007
10
-21.076163834142715
20
65.409682182093007
42
-0.4142135623730952
10
-13.076163834142724
20
73.409682182092993
10
14.923836165857301
20
73.409682182092951
42
-0.4142135623730947
10
22.923836165857274
20
65.409682182092951
10
22.923836165857239
20
43.409682182092936
42
-0.41421356237309515
0
LWPOLYLINE
5
102
100
AcDbEntity
8
0
100
AcDbPolyline
90
8
70
1
43
0.0
10
-18.076163834142527
20
79.409682182092197
42
-0.41421356237309515
10
-26.076163834142537
20
87.409682182092197
10
-26.076163834142569
20
113.4096821820922
42
-0.41421356237309492
10
-18.076163834142569
20
121.40968218209221
10
19.923836165857438
20
121.40968218209223
42
-0.41421356237309526
10
27.923836165857448
20
113.40968218209221
10
27.923836165857466
20
87.409682182092212
42
-0.41421356237309481
10
19.923836165857473
20
79.409682182092226
0
LWPOLYLINE
5
103
100
AcDbEntity
8
0
100
AcDbPolyline
90
8
70
1
43
0.0
10
-34.076163834142903
20
131.40968218209213
42
-0.4142135623730937
10
-32.076163834142903
20
133.40968218209213
10
33.923836165857779
20
133.40968218209184
42
-0.41421356237309309
10
35.923836165857765
20
131.40968218209184
10
35.923836165856592
20
-51.490317817907574
42
-0.41421356237309637
10
33.923836165856585
20
-53.490317817907574
10
-32.076163834144047
20
-53.490317817907197
42
-0.4142135623730937
10
-34.076163834144054
20
-51.490317817907197
0
CIRCLE
5
104
100
AcDbEntity
8
0
100
AcDbCircle
10
29.923836165856542
20
-47.490317817907709
30
0
40
1.5000000000000002
0
CIRCLE
5
105
100
AcDbEntity
8
0
100
AcDbCircle
10
-28.076163834142946
20
127.40968218209211
30
0
40
1.5000000000000036
0
CIRCLE
5
106
100
AcDbEntity
8
0
100
AcDbCircle
10
-28.076163834144019
20
-47.490317817907233
30
0
40
1.5000000000000036
0
CIRCLE
5
107
100
AcDbEntity
8
0
100
AcDbCircle
10
29.923836165857498
20
127.40968218209184
30
0
40
1.5000000000000002
0
CIRCLE
5
108
100
AcDbEntity
8
0
100
AcDbCircle
10
0.9238361658568639
20
54.409682182092297
30
0
40
14.25
0
LINE
5
109
100
AcDbEntity
8
0
100
AcDbLine
10
-70.876163834142773
20
-6.0403178179062174
30
0
11
72.723836165857207
21
-6.0403178179064181
31
0
0
LINE
5
110
100
AcDbEntity
8
0
100
AcDbLine
10
-21.076163834142744
20
54.409682182093007
30
0
11
22.923836165857253
21
54.409682182092936
31
0
0
LINE
5
111
100
AcDbEntity
8
0
100
AcDbLine
10
-26.076163834142548
20
100.40968218209218
30
0
11
27.923836165857455
21
100.40968218209223
31
0
0
LINE
5
112
100
AcDbEntity
8
0
100
AcDbLine
10
0.92383616585743455
20
133.40968218209198
30
0
11
0.92383616585633765
21
-53.490317817907382
31
0
0
ENDSEC
0
SECTION
2
OBJECTS
0
DICTIONARY
5
C
100
AcDbDictionary
3
ACAD_GROUP
350
D
3
ACAD_MLINESTYLE
350
17
0
DICTIONARY
5
D
100
AcDbDictionary
0
DICTIONARY
5
1A
330
C
100
AcDbDictionary
0
DICTIONARY
5
17
100
AcDbDictionary
0
ENDSEC
0
EOF
