0
SECTION
2
HEADER
9
$INSUNITS
70
4
9
$ACADVER
1
AC1014
9
$HANDSEED
5
FFFF
0
ENDSEC
0
SECTION
2
TABLES
0
TABLE
2
VPORT
5
8
100
AcDbSymbolTable
0
ENDTAB
0
TABLE
2
LTYPE
5
5
100
AcDbSymbolTable
0
LTYPE
5
14
100
AcDbSymbolTableRecord
100
AcDbLinetypeTableRecord
2
BYBLOCK
70
0
0
LTYPE
5
15
100
AcDbSymbolTableRecord
100
AcDbLinetypeTableRecord
2
BYLAYER
70
0
0
ENDTAB
0
TABLE
2
LAYER
5
2
100
AcDbSymbolTable
70
2
0
LAYER
5
50
100
AcDbSymbolTableRecord
100
AcDbLayerTableRecord
2
0
70
0
6
CONTINUOUS
0
ENDTAB
0
TABLE
2
STYLE
5
3
100
AcDbSymbolTable
70
1
0
STYLE
5
11
100
AcDbSymbolTableRecord
100
AcDbTextStyleTableRecord
2
STANDARD
70
0
0
ENDTAB
0
TABLE
2
VIEW
5
6
100
AcDbSymbolTable
70
0
0
ENDTAB
0
TABLE
2
UCS
5
7
100
AcDbSymbolTable
70
0
0
ENDTAB
0
TABLE
2
APPID
5
9
100
AcDbSymbolTable
70
2
0
APPID
5
12
100
AcDbSymbolTableRecord
100
AcDbRegAppTableRecord
2
ACAD
70
0
0
ENDTAB
0
TABLE
2
DIMSTYLE
5
A
100
AcDbSymbolTable
70
1
0
ENDTAB
0
TABLE
2
BLOCK_RECORD
5
1
100
AcDbSymbolTable
70
1
0
BLOCK_RECORD
5
1F
100
AcDbSymbolTableRecord
100
AcDbBlockTableRecord
2
*MODEL_SPACE
0
BLOCK_RECORD
5
1B
100
AcDbSymbolTableRecord
100
AcDbBlockTableRecord
2
*PAPER_SPACE
0
ENDTAB
0
ENDSEC
0
SECTION
2
BLOCKS
0
BLOCK
5
20
100
AcDbEntity
100
AcDbBlockBegin
2
*MODEL_SPACE
0
ENDBLK
5
21
100
AcDbEntity
100
AcDbBlockEnd
0
BLOCK
5
1C
100
AcDbEntity
100
AcDbBlockBegin
2
*PAPER_SPACE
0
ENDBLK
5
1D
100
AcDbEntity
100
AcDbBlockEnd
0
ENDSEC
0
SECTION
2
ENTITIES
0
CIRCLE
5
100
100
AcDbEntity
8
0
100
AcDbCircle
10
-40.607327740253972
20
-2.7213429086847367
30
0
40
1.5000000000000036
0
LWPOLYLINE
5
101
100
AcDbEntity
8
0
100
AcDbPolyline
90
8
70
1
43
0.0
10
17.486366140352519
20
76.778657091315011
10
27.486366140352501
20
76.778657091315026
10
27.486366140352501
20
79.778657091315011
10
17.486366140352509
20
79.778657091314926
10
17.486366140352509
20
80.528657091315011
10
7.9573322259965575
20
80.528657091315026
42
12.139848873888942
10
7.9573322259965495
20
76.028657091314955
10
17.486366140352519
20
76.028657091314955
0
CIRCLE
5
102
100
AcDbEntity
8
0
100
AcDbCircle
10
29.392672259746032
20
188.17865709131468
30
0
40
1.4999999999999991
0
CIRCLE
5
103
100
AcDbEntity
8
0
100
AcDbCircle
10
-40.607327740253893
20
188.17865709131468
30
0
40
1.5000000000000036
0
CIRCLE
5
104
100
AcDbEntity
8
0
100
AcDbCircle
10
29.392672259745925
20
-2.7213429086847722
30
0
40
1.4999999999999991
0
LWPOLYLINE
5
105
100
AcDbEntity
8
0
100
AcDbPolyline
90
10
70
1
43
0.0
10
17.892672259745904
20
172.22865709131483
10
17.892672259745904
20
174.22865709131486
42
0.41421356237308954
10
15.892672259745911
20
176.2286570913148
10
-27.107327740254018
20
176.2286570913148
42
0.4142135623731002
10
-29.107327740254028
20
174.2286570913148
10
-29.107327740254028
20
172.22865709131483
10
-33.107327740254014
20
172.22865709131483
10
-33.107327740254064
20
117.22865709131484
10
21.892672259745943
20
117.22865709131484
10
21.892672259745943
20
172.22865709131483
0
LWPOLYLINE
5
106
100
AcDbEntity
8
0
100
AcDbPolyline
90
10
70
1
43
0.0
10
-27.107327740254345
20
-5.2213429086846279
42
-0.41421356237309853
10
-29.107327740254338
20
-3.2213429086846195
10
-29.10732774025432
20
-1.2213429086846088
10
-33.107327740254341
20
-1.2213429086846439
10
-33.107327740254327
20
53.778657091315324
10
21.892672259745712
20
53.778657091315324
10
21.892672259745712
20
-1.2213429086846439
10
17.892672259745726
20
-1.2213429086846088
10
17.892672259745726
20
-3.2213429086846372
42
-0.41421356237309509
10
15.892672259745737
20
-5.2213429086846297
0
LWPOLYLINE
5
107
100
AcDbEntity
8
0
100
AcDbPolyline
90
8
70
1
43
0.0
10
35.392672259746064
20
196.17865709131468
42
-0.41421356237309698
10
37.392672259746085
20
194.17865709131468
10
37.392672259746035
20
-8.72134290868477
42
-0.4142135623730957
10
35.392672259746021
20
-10.721342908684779
10
-46.607327740253986
20
-10.721342908684646
42
-0.41421356237309132
10
-48.607327740253979
20
-8.7213429086846617
10
-48.607327740253922
20
194.17865709131476
42
-0.41421356237309509
10
-46.607327740253893
20
196.17865709131479
0
LWPOLYLINE
5
108
100
AcDbEntity
8
0
100
AcDbPolyline
90
10
70
1
43
0.0
10
-27.107327740254348
20
-5.2213429086846306
10
15.89267225974573
20
-5.2213429086846306
42
0.41421356237309515
10
17.892672259745723
20
-3.2213429086846368
10
17.892672259745723
20
-1.221342908684609
10
21.892672259745709
20
-1.2213429086846439
10
21.892672259745702
20
53.778657091315324
10
-33.107327740254334
20
53.778657091315324
10
-33.107327740254348
20
-1.2213429086846446
10
-29.107327740254327
20
-1.2213429086846443
10
-29.107327740254341
20
-3.2213429086846195
42
0.41421356237309787
0
LWPOLYLINE
5
109
100
AcDbEntity
8
0
100
AcDbPolyline
90
10
70
1
43
0.0
10
15.892672259745908
20
176.2286570913148
42
-0.41421356237309437
10
17.892672259745893
20
174.22865709131483
10
17.8926722597459
20
172.22865709131483
10
21.892672259745936
20
172.2286570913148
10
21.892672259745936
20
117.22865709131484
10
-33.107327740254071
20
117.22865709131484
10
-33.107327740254021
20
172.22865709131483
10
-29.107327740254032
20
172.22865709131483
10
-29.107327740254032
20
174.22865709131483
42
-0.41421356237309437
10
-27.107327740254043
20
176.2286570913148
0
CIRCLE
5
110
100
AcDbEntity
8
0
100
AcDbCircle
10
29.392672259745922
20
-2.7213429086847722
30
0
40
1.4999999999999991
0
CIRCLE
5
111
100
AcDbEntity
8
0
100
AcDbCircle
10
-40.607327740253893
20
188.17865709131468
30
0
40
1.5000000000000036
0
CIRCLE
5
112
100
AcDbEntity
8
0
100
AcDbCircle
10
29.392672259746028
20
188.17865709131468
30
0
40
1.4999999999999991
0
LWPOLYLINE
5
113
100
AcDbEntity
8
0
100
AcDbPolyline
90
8
70
1
43
0.0
10
27.486366140352494
20
76.778657091315026
10
27.486366140352494
20
79.778657091315011
10
17.486366140352505
20
79.778657091314926
10
17.486366140352509
20
80.528657091315011
10
7.9573322259965522
20
80.528657091315026
42
12.139848873888878
10
7.957332225996554
20
76.02865709131494
10
17.486366140352516
20
76.028657091314955
10
17.486366140352512
20
76.778657091315011
0
CIRCLE
5
114
100
AcDbEntity
8
0
100
AcDbCircle
10
-40.607327740253972
20
-2.7213429086847367
30
0
40
1.5000000000000036
0
LWPOLYLINE
5
115
100
AcDbEntity
8
0
100
AcDbPolyline
90
8
70
1
43
0.0
10
37.392672259746021
20
-8.7213429086847682
10
37.392672259746085
20
194.17865709131468
42
0.41421356237309637
10
35.392672259746064
20
196.17865709131473
10
-46.607327740253893
20
196.17865709131476
42
0.41421356237309509
10
-48.607327740253893
20
194.17865709131476
10
-48.607327740253979
20
-8.7213429086846457
42
0.4142135623730937
10
-46.607327740253993
20
-10.721342908684637
10
35.392672259746021
20
-10.721342908684779
42
0.41421356237309581
0
ENDSEC
0
SECTION
2
OBJECTS
0
DICTIONARY
5
C
100
AcDbDictionary
3
ACAD_GROUP
350
D
3
ACAD_MLINESTYLE
350
17
0
DICTIONARY
5
D
100
AcDbDictionary
0
DICTIONARY
5
1A
330
C
100
AcDbDictionary
0
DICTIONARY
5
17
100
AcDbDictionary
0
ENDSEC
0
EOF
