0
SECTION
2
HEADER
9
$INSUNITS
70
4
9
$ACADVER
1
AC1014
9
$HANDSEED
5
FFFF
0
ENDSEC
0
SECTION
2
TABLES
0
TABLE
2
VPORT
5
8
100
AcDbSymbolTable
0
ENDTAB
0
TABLE
2
LTYPE
5
5
100
AcDbSymbolTable
0
LTYPE
5
14
100
AcDbSymbolTableRecord
100
AcDbLinetypeTableRecord
2
BYBLOCK
70
0
0
LTYPE
5
15
100
AcDbSymbolTableRecord
100
AcDbLinetypeTableRecord
2
BYLAYER
70
0
0
ENDTAB
0
TABLE
2
LAYER
5
2
100
AcDbSymbolTable
70
2
0
LAYER
5
50
100
AcDbSymbolTableRecord
100
AcDbLayerTableRecord
2
0
70
0
6
CONTINUOUS
0
ENDTAB
0
TABLE
2
STYLE
5
3
100
AcDbSymbolTable
70
1
0
STYLE
5
11
100
AcDbSymbolTableRecord
100
AcDbTextStyleTableRecord
2
STANDARD
70
0
0
ENDTAB
0
TABLE
2
VIEW
5
6
100
AcDbSymbolTable
70
0
0
ENDTAB
0
TABLE
2
UCS
5
7
100
AcDbSymbolTable
70
0
0
ENDTAB
0
TABLE
2
APPID
5
9
100
AcDbSymbolTable
70
2
0
APPID
5
12
100
AcDbSymbolTableRecord
100
AcDbRegAppTableRecord
2
ACAD
70
0
0
ENDTAB
0
TABLE
2
DIMSTYLE
5
A
100
AcDbSymbolTable
70
1
0
ENDTAB
0
TABLE
2
BLOCK_RECORD
5
1
100
AcDbSymbolTable
70
1
0
BLOCK_RECORD
5
1F
100
AcDbSymbolTableRecord
100
AcDbBlockTableRecord
2
*MODEL_SPACE
0
BLOCK_RECORD
5
1B
100
AcDbSymbolTableRecord
100
AcDbBlockTableRecord
2
*PAPER_SPACE
0
ENDTAB
0
ENDSEC
0
SECTION
2
BLOCKS
0
BLOCK
5
20
100
AcDbEntity
100
AcDbBlockBegin
2
*MODEL_SPACE
0
ENDBLK
5
21
100
AcDbEntity
100
AcDbBlockEnd
0
BLOCK
5
1C
100
AcDbEntity
100
AcDbBlockBegin
2
*PAPER_SPACE
0
ENDBLK
5
1D
100
AcDbEntity
100
AcDbBlockEnd
0
ENDSEC
0
SECTION
2
ENTITIES
0
LWPOLYLINE
5
100
100
AcDbEntity
8
0
100
AcDbPolyline
90
4
70
1
43
0.0
10
23.090217693771219
20
2.3552680594628321
10
23.090217693771237
20
-0.64473194053708827
10
33.090217693771223
20
-0.64473194053703498
10
33.090217693771208
20
2.3552680594629543
0
LWPOLYLINE
5
101
100
AcDbEntity
8
0
100
AcDbPolyline
90
10
70
1
43
0.0
10
21.496523813164309
20
98.805268059462747
10
-21.503476186835652
20
98.805268059462577
42
0.41421356237310092
10
-23.503476186835645
20
96.805268059462577
10
-23.50347618683562
20
94.80526805946262
10
-27.503476186835979
20
94.805268059462975
10
-27.503476186835481
20
39.805268059462591
10
27.496523813164529
20
39.805268059462769
10
27.496523813164352
20
94.805268059462719
10
23.496523813164313
20
94.805268059462762
10
23.496523813164302
20
96.805268059462733
42
0.41421356237309698
0
CIRCLE
5
102
100
AcDbEntity
8
0
100
AcDbCircle
10
34.996523813164387
20
110.75526805946265
30
0
40
1.4999999999999991
0
CIRCLE
5
103
100
AcDbEntity
8
0
100
AcDbCircle
10
-35.00347618683498
20
-80.144731940537
30
0
40
1.5000000000000036
0
LWPOLYLINE
5
104
100
AcDbEntity
8
0
100
AcDbPolyline
90
10
70
1
43
0.0
10
-27.503476186835357
20
-78.6447319405369
10
-23.503476186835336
20
-78.644731940536886
10
-23.50347618683535
20
-80.644731940536872
42
0.4142135623731002
10
-21.503476186835346
20
-82.644731940536857
10
21.496523813164732
20
-82.644731940536715
42
0.4142135623730957
10
23.496523813164728
20
-80.64473194053673
10
23.496523813164711
20
-78.644731940536701
10
27.496523813164696
20
-78.64473194053673
10
27.496523813164512
20
-23.644731940536762
10
-27.503476186835524
20
-23.644731940536943
0
CIRCLE
5
105
100
AcDbEntity
8
0
100
AcDbCircle
10
34.996523813164913
20
-80.144731940536815
30
4.4408920985006262e-15
40
1.4999999999999991
0
CIRCLE
5
106
100
AcDbEntity
8
0
100
AcDbCircle
10
-35.003476186835542
20
110.7552680594624
30
0
40
1.5000000000000036
0
LWPOLYLINE
5
107
100
AcDbEntity
8
0
100
AcDbPolyline
90
16
70
1
43
0.0
10
42.996523813165091
20
-86.144731940536843
42
-0.41421356237308854
10
40.996523813165098
20
-88.144731940536815
10
-41.003476186834931
20
-88.144731940536929
42
-0.41421356237309243
10
-43.003476186834924
20
-86.144731940536957
10
-43.003476186835456
20
7.8052680594630068
10
-41.103476186839387
20
7.8052680594630068
10
-41.103476186839387
20
10.305268059463007
10
-32.603476186839387
20
10.305268059463003
10
-32.603476186839387
20
20.305268059463003
10
-41.103476186839387
20
20.305268059463003
10
-41.103476186839387
20
22.805268059463003
10
-43.003476186835279
20
22.805268059463017
10
-43.003476186835513
20
116.75526805946245
42
-0.4142135623731002
10
-41.003476186835513
20
118.75526805946248
10
40.996523813164444
20
118.75526805946267
42
-0.4142135623730977
10
42.996523813164472
20
116.75526805946265
0
CIRCLE
5
108
100
AcDbEntity
8
0
100
AcDbCircle
10
-0.0034761868352547317
20
0.85526805946281259
30
0
40
13.749999999999829
0
CIRCLE
5
109
100
AcDbEntity
8
0
100
AcDbCircle
10
-0.0034761868352538123
20
0.85526805946281259
30
0
40
13.749999999999829
0
CIRCLE
5
110
100
AcDbEntity
8
0
100
AcDbCircle
10
-35.003476186835542
20
110.7552680594624
30
0
40
1.5000000000000036
0
CIRCLE
5
111
100
AcDbEntity
8
0
100
AcDbCircle
10
34.996523813164913
20
-80.144731940536815
30
4.4408920985006262e-15
40
1.4999999999999991
0
LWPOLYLINE
5
112
100
AcDbEntity
8
0
100
AcDbPolyline
90
10
70
1
43
0.0
10
-23.503476186835339
20
-78.6447319405369
10
-23.503476186835353
20
-80.644731940536872
42
0.41421356237310353
10
-21.50347618683535
20
-82.644731940536872
10
21.496523813164728
20
-82.644731940536715
42
0.41421356237309637
10
23.496523813164728
20
-80.64473194053673
10
23.496523813164711
20
-78.644731940536701
10
27.496523813164696
20
-78.64473194053673
10
27.496523813164512
20
-23.644731940536762
10
-27.503476186835524
20
-23.644731940536943
10
-27.503476186835357
20
-78.6447319405369
0
CIRCLE
5
113
100
AcDbEntity
8
0
100
AcDbCircle
10
-35.00347618683498
20
-80.144731940537
30
0
40
1.5000000000000036
0
CIRCLE
5
114
100
AcDbEntity
8
0
100
AcDbCircle
10
34.996523813164387
20
110.75526805946265
30
0
40
1.4999999999999991
0
LWPOLYLINE
5
115
100
AcDbEntity
8
0
100
AcDbPolyline
90
10
70
1
43
0.0
10
-23.503476186835645
20
96.805268059462563
42
-0.4142135623730977
10
-21.503476186835652
20
98.805268059462577
10
21.496523813164316
20
98.805268059462747
42
-0.41421356237310092
10
23.496523813164302
20
96.805268059462719
10
23.496523813164313
20
94.805268059462762
10
27.496523813164352
20
94.805268059462719
10
27.496523813164529
20
39.805268059462769
10
-27.503476186835481
20
39.805268059462584
10
-27.503476186835979
20
94.805268059462975
10
-23.50347618683562
20
94.80526805946262
0
LWPOLYLINE
5
116
100
AcDbEntity
8
0
100
AcDbPolyline
90
4
70
1
43
0.0
10
23.090217693771237
20
-0.64473194053708827
10
33.090217693771223
20
-0.64473194053703498
10
33.090217693771208
20
2.3552680594629543
10
23.090217693771219
20
2.3552680594628321
0
LWPOLYLINE
5
117
100
AcDbEntity
8
0
100
AcDbPolyline
90
16
70
1
43
0.0
10
-41.003476186834924
20
-88.144731940536914
10
40.996523813165091
20
-88.144731940536786
42
0.4142135623730937
10
42.996523813165084
20
-86.144731940536801
10
42.996523813164472
20
116.75526805946265
42
0.4142135623730977
10
40.996523813164444
20
118.75526805946271
10
-41.003476186835513
20
118.75526805946248
42
0.41421356237309892
10
-43.003476186835513
20
116.75526805946245
10
-43.003476186835279
20
22.805268059463003
10
-41.10347618683938
20
22.805268059463003
10
-41.10347618683938
20
20.305268059463003
10
-32.603476186839387
20
20.305268059463003
10
-32.603476186839387
20
10.305268059463007
10
-41.10347618683938
20
10.305268059463007
10
-41.10347618683938
20
7.8052680594630068
10
-43.003476186835201
20
7.8052680594630175
10
-43.003476186834924
20
-86.144731940536957
42
0.41421356237309243
0
ENDSEC
0
SECTION
2
OBJECTS
0
DICTIONARY
5
C
100
AcDbDictionary
3
ACAD_GROUP
350
D
3
ACAD_MLINESTYLE
350
17
0
DICTIONARY
5
D
100
AcDbDictionary
0
DICTIONARY
5
1A
330
C
100
AcDbDictionary
0
DICTIONARY
5
17
100
AcDbDictionary
0
ENDSEC
0
EOF
