0
SECTION
2
HEADER
9
$INSUNITS
70
4
9
$ACADVER
1
AC1014
9
$HANDSEED
5
FFFF
0
ENDSEC
0
SECTION
2
TABLES
0
TABLE
2
VPORT
5
8
100
AcDbSymbolTable
0
ENDTAB
0
TABLE
2
LTYPE
5
5
100
AcDbSymbolTable
0
LTYPE
5
14
100
AcDbSymbolTableRecord
100
AcDbLinetypeTableRecord
2
BYBLOCK
70
0
0
LTYPE
5
15
100
AcDbSymbolTableRecord
100
AcDbLinetypeTableRecord
2
BYLAYER
70
0
0
ENDTAB
0
TABLE
2
LAYER
5
2
100
AcDbSymbolTable
70
2
0
LAYER
5
50
100
AcDbSymbolTableRecord
100
AcDbLayerTableRecord
2
0
70
0
6
CONTINUOUS
0
ENDTAB
0
TABLE
2
STYLE
5
3
100
AcDbSymbolTable
70
1
0
STYLE
5
11
100
AcDbSymbolTableRecord
100
AcDbTextStyleTableRecord
2
STANDARD
70
0
0
ENDTAB
0
TABLE
2
VIEW
5
6
100
AcDbSymbolTable
70
0
0
ENDTAB
0
TABLE
2
UCS
5
7
100
AcDbSymbolTable
70
0
0
ENDTAB
0
TABLE
2
APPID
5
9
100
AcDbSymbolTable
70
2
0
APPID
5
12
100
AcDbSymbolTableRecord
100
AcDbRegAppTableRecord
2
ACAD
70
0
0
ENDTAB
0
TABLE
2
DIMSTYLE
5
A
100
AcDbSymbolTable
70
1
0
ENDTAB
0
TABLE
2
BLOCK_RECORD
5
1
100
AcDbSymbolTable
70
1
0
BLOCK_RECORD
5
1F
100
AcDbSymbolTableRecord
100
AcDbBlockTableRecord
2
*MODEL_SPACE
0
BLOCK_RECORD
5
1B
100
AcDbSymbolTableRecord
100
AcDbBlockTableRecord
2
*PAPER_SPACE
0
ENDTAB
0
ENDSEC
0
SECTION
2
BLOCKS
0
BLOCK
5
20
100
AcDbEntity
100
AcDbBlockBegin
2
*MODEL_SPACE
0
ENDBLK
5
21
100
AcDbEntity
100
AcDbBlockEnd
0
BLOCK
5
1C
100
AcDbEntity
100
AcDbBlockBegin
2
*PAPER_SPACE
0
ENDBLK
5
1D
100
AcDbEntity
100
AcDbBlockEnd
0
ENDSEC
0
SECTION
2
ENTITIES
0
CIRCLE
5
100
100
AcDbEntity
8
0
100
AcDbCircle
10
-38.779509673562785
20
-76.368698453809202
30
0
40
1.5000000000000036
0
CIRCLE
5
101
100
AcDbEntity
8
0
100
AcDbCircle
10
31.220490326437105
20
-76.368698453809017
30
0
40
1.4999999999999991
0
CIRCLE
5
102
100
AcDbEntity
8
0
100
AcDbCircle
10
-38.77950967356341
20
114.53130154619019
30
0
40
1.5000000000000036
0
CIRCLE
5
103
100
AcDbEntity
8
0
100
AcDbCircle
10
31.220490326436519
20
114.53130154619046
30
0
40
1.4999999999999991
0
LWPOLYLINE
5
104
100
AcDbEntity
8
0
100
AcDbPolyline
90
61
70
1
43
0.0
10
-13.77950967356294
20
-23.368698453808765
10
-13.779509673562947
20
14.068594590278957
42
-0.026720539238372015
10
-12.715951918662135
20
15.081301546190829
10
19.314184207043404
20
15.081301546190829
10
19.314184207043404
20
3.1313015461907279
10
29.31418420704339
20
3.1313015461907856
10
29.31418420704339
20
23.081301546190822
10
-13.77950967356294
20
23.081301546190822
10
-13.77950967356294
20
47.081301546190311
10
14.220490326437147
20
47.081301546190311
10
14.220490326437147
20
54.581301546190303
10
18.720490326437144
20
54.58130154619036
42
0.41421356237309453
10
24.220490326437108
20
60.081301546190332
10
24.220490326437112
20
87.581301546190303
10
19.720490326436458
20
87.581301546190303
10
19.720490326436448
20
100.58130154619053
42
0.41421356237309698
10
17.720490326436455
20
102.58130154619056
10
-25.279509673563517
20
102.58130154619037
42
0.41421356237309509
10
-27.279509673563503
20
100.58130154619037
10
-27.279509673563481
20
87.581301546190303
10
-31.779509673562885
20
87.581301546190303
10
-31.779509673562856
20
60.081301546190282
42
0.41421356237309431
10
-26.279509673562877
20
54.581301546190303
10
-21.779509673562938
20
54.581301546190303
10
-21.779509673562938
20
23.081301546190822
10
-30.279509673563659
20
23.081301546190822
10
-30.279509673563663
20
26.58130154619084
42
0.41421356237309509
10
-33.279509673563659
20
29.581301546190836
10
-42.279509673563652
20
29.581301546190844
42
0.41421356237309714
10
-45.279509673563666
20
26.581301546190804
10
-46.779509673563126
20
26.581301546190819
10
-46.779509673563382
20
120.53130154619025
42
-0.4142135623731002
10
-44.779509673563389
20
122.53130154619028
10
37.220490326436568
20
122.53130154619052
42
-0.4142135623730977
10
39.220490326436618
20
120.53130154619049
10
39.220490326437265
20
-82.36869845380896
42
-0.41421356237310281
10
37.220490326437272
20
-84.368698453808975
10
-44.779509673562742
20
-84.368698453809117
42
-0.41421356237308982
10
-46.779509673562714
20
-82.368698453809145
10
-46.779509673563084
20
11.581301546190819
10
-45.279509673563652
20
11.581301546190836
42
0.41421356237309331
10
-42.279509673563652
20
8.58130154619084
10
-33.279509673563645
20
8.5813015461908471
42
0.41421356237309437
10
-30.279509673563659
20
11.581301546190836
10
-30.279509673563659
20
15.081301546190829
10
-21.779509673562938
20
15.081301546190833
10
-21.779509673562938
20
-30.868698453808765
10
-26.279509673562931
20
-30.868698453808761
42
0.41421356237309431
10
-31.779509673562927
20
-36.368698453808761
10
-31.779509673562927
20
-63.868698453808761
10
-27.27950967356314
20
-63.868698453808761
10
-27.279509673563158
20
-76.868698453809088
42
0.41421356237310414
10
-25.279509673563155
20
-78.868698453809088
10
17.720490326436924
20
-78.868698453808904
42
0.41421356237309637
10
19.720490326436924
20
-76.868698453808918
10
19.720490326436906
20
-63.868698453808761
10
24.220490326437066
20
-63.868698453808761
10
24.220490326437066
20
-36.368698453808754
42
0.4142135623730942
10
18.720490326437076
20
-30.868698453808765
10
11.720490326437067
20
-30.868698453808765
10
11.720490326437067
20
-23.368698453808765
0
CIRCLE
5
105
100
AcDbEntity
8
0
100
AcDbCircle
10
31.220490326436519
20
114.53130154619046
30
0
40
1.4999999999999991
0
CIRCLE
5
106
100
AcDbEntity
8
0
100
AcDbCircle
10
-38.77950967356341
20
114.53130154619019
30
0
40
1.5000000000000036
0
CIRCLE
5
107
100
AcDbEntity
8
0
100
AcDbCircle
10
31.220490326437105
20
-76.368698453809017
30
0
40
1.4999999999999991
0
CIRCLE
5
108
100
AcDbEntity
8
0
100
AcDbCircle
10
-38.779509673562785
20
-76.368698453809202
30
0
40
1.5000000000000036
0
LWPOLYLINE
5
109
100
AcDbEntity
8
0
100
AcDbPolyline
90
61
70
1
43
0.0
10
-13.77950967356294
20
-23.368698453808765
10
11.720490326437067
20
-23.368698453808765
10
11.720490326437067
20
-30.868698453808765
10
18.720490326437076
20
-30.868698453808765
42
-0.41421356237309509
10
24.220490326437066
20
-36.368698453808754
10
24.220490326437066
20
-63.868698453808761
10
19.720490326436906
20
-63.868698453808761
10
19.720490326436924
20
-76.868698453808918
42
-0.41421356237309637
10
17.720490326436924
20
-78.868698453808904
10
-25.279509673563155
20
-78.868698453809088
42
-0.41421356237310153
10
-27.279509673563158
20
-76.868698453809088
10
-27.279509673563066
20
-63.868698453808761
10
-31.779509673562927
20
-63.868698453808761
10
-31.779509673562927
20
-36.368698453808761
42
-0.41421356237309509
10
-26.279509673562931
20
-30.868698453808761
10
-21.779509673562938
20
-30.868698453808769
10
-21.779509673562938
20
15.081301546190829
10
-30.279509673563659
20
15.081301546190829
10
-30.279509673563659
20
11.581301546190836
42
-0.41421356237309509
10
-33.279509673563645
20
8.5813015461908471
10
-42.279509673563652
20
8.5813015461908382
42
-0.41421356237309509
10
-45.279509673563652
20
11.581301546190836
10
-46.779509673563084
20
11.581301546190819
10
-46.779509673562735
20
-82.368698453809145
42
0.41421356237308982
10
-44.779509673562742
20
-84.368698453809117
10
37.220490326437272
20
-84.36869845380896
42
0.41421356237310281
10
39.220490326437265
20
-82.36869845380896
10
39.220490326436597
20
120.53130154619049
42
0.4142135623730977
10
37.220490326436568
20
122.53130154619052
10
-44.779509673563389
20
122.53130154619028
42
0.4142135623731002
10
-46.779509673563382
20
120.53130154619025
10
-46.779509673563126
20
26.581301546190819
10
-45.279509673563666
20
26.581301546190804
42
-0.41421356237309809
10
-42.279509673563652
20
29.581301546190844
10
-33.279509673563659
20
29.581301546190836
42
-0.41421356237309509
10
-30.279509673563663
20
26.58130154619084
10
-30.279509673563659
20
23.081301546190822
10
-21.779509673562938
20
23.081301546190822
10
-21.779509673562938
20
54.581301546190303
10
-26.279509673562881
20
54.581301546190303
42
-0.41421356237309476
10
-31.779509673562856
20
60.081301546190282
10
-31.779509673562885
20
87.581301546190303
10
-27.279509673563481
20
87.581301546190303
10
-27.27950967356351
20
100.58130154619037
42
-0.41421356237309509
10
-25.279509673563517
20
102.58130154619037
10
17.720490326436455
20
102.58130154619056
42
-0.4142135623731002
10
19.720490326436448
20
100.58130154619053
10
19.720490326436458
20
87.581301546190303
10
24.220490326437112
20
87.581301546190303
10
24.220490326437112
20
60.081301546190332
42
-0.41421356237309476
10
18.720490326437144
20
54.58130154619036
10
14.220490326437147
20
54.581301546190303
10
14.220490326437147
20
47.081301546190311
10
-13.77950967356294
20
47.081301546190311
10
-13.77950967356294
20
23.081301546190822
10
29.31418420704339
20
23.081301546190822
10
29.31418420704339
20
3.1313015461907856
10
19.314184207043404
20
3.1313015461907279
10
19.314184207043404
20
15.081301546190829
10
-12.715951918662135
20
15.081301546190833
42
0.026720539238369378
10
-13.779509673562934
20
14.068594590278977
0
ENDSEC
0
SECTION
2
OBJECTS
0
DICTIONARY
5
C
100
AcDbDictionary
3
ACAD_GROUP
350
D
3
ACAD_MLINESTYLE
350
17
0
DICTIONARY
5
D
100
AcDbDictionary
0
DICTIONARY
5
1A
330
C
100
AcDbDictionary
0
DICTIONARY
5
17
100
AcDbDictionary
0
ENDSEC
0
EOF
