  0
SECTION
  2
HEADER
  9
$ACADVER
  1
AC1009
  9
$DWGCODEPAGE
  3
ansi_1252
  9
$INSBASE
  10
0.0
  20
0.0
  30
0.0
  9
$EXTMIN
  10
115.5
  20
6.55
  30
0.0
  9
$EXTMAX
  10
184.5
  20
193.45
  30
0.0
  0
ENDSEC
  0
SECTION
  2
ENTITIES
  0
POLYLINE
  62
0
  70
1
  0
VERTEX
  10
180.0643
  20
12.550003
  0
VERTEX
  10
180.03426
  20
12.247702
  0
VERTEX
  10
179.9481
  20
11.966136
  0
VERTEX
  10
179.81178
  20
11.711339
  0
VERTEX
  10
179.63123
  20
11.489344
  0
VERTEX
  10
179.4124
  20
11.30618
  0
VERTEX
  10
179.16124
  20
11.167881
  0
VERTEX
  10
178.8837
  20
11.080478
  0
VERTEX
  10
178.58572
  20
11.050003
  0
VERTEX
  10
178.28775
  20
11.080478
  0
VERTEX
  10
178.01021
  20
11.167881
  0
VERTEX
  10
177.75905
  20
11.30618
  0
VERTEX
  10
177.54022
  20
11.489344
  0
VERTEX
  10
177.35966
  20
11.711339
  0
VERTEX
  10
177.22334
  20
11.966136
  0
VERTEX
  10
177.13719
  20
12.247702
  0
VERTEX
  10
177.10715
  20
12.550003
  0
VERTEX
  10
177.13719
  20
12.852304
  0
VERTEX
  10
177.22334
  20
13.13387
  0
VERTEX
  10
177.35966
  20
13.388667
  0
VERTEX
  10
177.54022
  20
13.610662
  0
VERTEX
  10
177.75905
  20
13.793826
  0
VERTEX
  10
178.01021
  20
13.932125
  0
VERTEX
  10
178.28775
  20
14.019528
  0
VERTEX
  10
178.58572
  20
14.050003
  0
VERTEX
  10
178.8837
  20
14.019528
  0
VERTEX
  10
179.16124
  20
13.932125
  0
VERTEX
  10
179.4124
  20
13.793826
  0
VERTEX
  10
179.63123
  20
13.610662
  0
VERTEX
  10
179.81178
  20
13.388667
  0
VERTEX
  10
179.9481
  20
13.13387
  0
VERTEX
  10
180.03426
  20
12.852304
  0
VERTEX
  10
180.0643
  20
12.550003
  0
SEQEND
  0
POLYLINE
  62
0
  70
1
  0
VERTEX
  10
122.89286
  20
187.45001
  0
VERTEX
  10
122.86282
  20
187.14771
  0
VERTEX
  10
122.77667
  20
186.86613
  0
VERTEX
  10
122.64035
  20
186.61133
  0
VERTEX
  10
122.4598
  20
186.38934
  0
VERTEX
  10
122.24098
  20
186.20619
  0
VERTEX
  10
121.98982
  20
186.0679
  0
VERTEX
  10
121.71228
  20
185.9805
  0
VERTEX
  10
121.41429
  20
185.95001
  0
VERTEX
  10
121.1163
  20
185.9805
  0
VERTEX
  10
120.83876
  20
186.0679
  0
VERTEX
  10
120.5876
  20
186.20619
  0
VERTEX
  10
120.36878
  20
186.38934
  0
VERTEX
  10
120.18823
  20
186.61133
  0
VERTEX
  10
120.05191
  20
186.86613
  0
VERTEX
  10
119.96576
  20
187.14771
  0
VERTEX
  10
119.93572
  20
187.45001
  0
VERTEX
  10
119.96576
  20
187.75232
  0
VERTEX
  10
120.05191
  20
188.03389
  0
VERTEX
  10
120.18823
  20
188.2887
  0
VERTEX
  10
120.36878
  20
188.51068
  0
VERTEX
  10
120.5876
  20
188.69383
  0
VERTEX
  10
120.83876
  20
188.83212
  0
VERTEX
  10
121.1163
  20
188.91953
  0
VERTEX
  10
121.41429
  20
188.95001
  0
VERTEX
  10
121.71228
  20
188.91953
  0
VERTEX
  10
121.98982
  20
188.83212
  0
VERTEX
  10
122.24098
  20
188.69383
  0
VERTEX
  10
122.4598
  20
188.51068
  0
VERTEX
  10
122.64035
  20
188.2887
  0
VERTEX
  10
122.77667
  20
188.03389
  0
VERTEX
  10
122.86282
  20
187.75232
  0
VERTEX
  10
122.89286
  20
187.45001
  0
SEQEND
  0
POLYLINE
  62
0
  70
1
  0
VERTEX
  10
122.89286
  20
12.550003
  0
VERTEX
  10
122.86282
  20
12.247702
  0
VERTEX
  10
122.77667
  20
11.966136
  0
VERTEX
  10
122.64035
  20
11.711339
  0
VERTEX
  10
122.4598
  20
11.489344
  0
VERTEX
  10
122.24098
  20
11.30618
  0
VERTEX
  10
121.98982
  20
11.167881
  0
VERTEX
  10
121.71228
  20
11.080478
  0
VERTEX
  10
121.41429
  20
11.050003
  0
VERTEX
  10
121.1163
  20
11.080478
  0
VERTEX
  10
120.83876
  20
11.167881
  0
VERTEX
  10
120.5876
  20
11.30618
  0
VERTEX
  10
120.36878
  20
11.489344
  0
VERTEX
  10
120.18823
  20
11.711339
  0
VERTEX
  10
120.05191
  20
11.966136
  0
VERTEX
  10
119.96576
  20
12.247702
  0
VERTEX
  10
119.93572
  20
12.550003
  0
VERTEX
  10
119.96576
  20
12.852304
  0
VERTEX
  10
120.05191
  20
13.13387
  0
VERTEX
  10
120.18823
  20
13.388667
  0
VERTEX
  10
120.36878
  20
13.610662
  0
VERTEX
  10
120.5876
  20
13.793826
  0
VERTEX
  10
120.83876
  20
13.932125
  0
VERTEX
  10
121.1163
  20
14.019528
  0
VERTEX
  10
121.41429
  20
14.050003
  0
VERTEX
  10
121.71228
  20
14.019528
  0
VERTEX
  10
121.98982
  20
13.932125
  0
VERTEX
  10
122.24098
  20
13.793826
  0
VERTEX
  10
122.4598
  20
13.610662
  0
VERTEX
  10
122.64035
  20
13.388667
  0
VERTEX
  10
122.77667
  20
13.13387
  0
VERTEX
  10
122.86282
  20
12.852304
  0
VERTEX
  10
122.89286
  20
12.550003
  0
SEQEND
  0
POLYLINE
  62
0
  70
1
  0
VERTEX
  10
180.0643
  20
187.45001
  0
VERTEX
  10
180.03426
  20
187.14771
  0
VERTEX
  10
179.9481
  20
186.86613
  0
VERTEX
  10
179.81178
  20
186.61133
  0
VERTEX
  10
179.63123
  20
186.38934
  0
VERTEX
  10
179.4124
  20
186.20619
  0
VERTEX
  10
179.16124
  20
186.0679
  0
VERTEX
  10
178.8837
  20
185.9805
  0
VERTEX
  10
178.58572
  20
185.95001
  0
VERTEX
  10
178.28775
  20
185.9805
  0
VERTEX
  10
178.01021
  20
186.0679
  0
VERTEX
  10
177.75905
  20
186.20619
  0
VERTEX
  10
177.54022
  20
186.38934
  0
VERTEX
  10
177.35966
  20
186.61133
  0
VERTEX
  10
177.22334
  20
186.86613
  0
VERTEX
  10
177.13719
  20
187.14771
  0
VERTEX
  10
177.10715
  20
187.45001
  0
VERTEX
  10
177.13719
  20
187.75232
  0
VERTEX
  10
177.22334
  20
188.03389
  0
VERTEX
  10
177.35966
  20
188.2887
  0
VERTEX
  10
177.54022
  20
188.51068
  0
VERTEX
  10
177.75905
  20
188.69383
  0
VERTEX
  10
178.01021
  20
188.83212
  0
VERTEX
  10
178.28775
  20
188.91953
  0
VERTEX
  10
178.58572
  20
188.95001
  0
VERTEX
  10
178.8837
  20
188.91953
  0
VERTEX
  10
179.16124
  20
188.83212
  0
VERTEX
  10
179.4124
  20
188.69383
  0
VERTEX
  10
179.63123
  20
188.51068
  0
VERTEX
  10
179.81178
  20
188.2887
  0
VERTEX
  10
179.9481
  20
188.03389
  0
VERTEX
  10
180.03426
  20
187.75232
  0
VERTEX
  10
180.0643
  20
187.45001
  0
SEQEND
  0
POLYLINE
  62
0
  70
1
  0
VERTEX
  10
164.04645
  20
114.45
  0
VERTEX
  10
164.02817
  20
113.71671
  0
VERTEX
  10
163.97392
  20
112.99303
  0
VERTEX
  10
163.8846
  20
112.27988
  0
VERTEX
  10
163.76108
  20
111.57814
  0
VERTEX
  10
163.60422
  20
110.88872
  0
VERTEX
  10
163.41495
  20
110.21249
  0
VERTEX
  10
163.19411
  20
109.55038
  0
VERTEX
  10
162.9426
  20
108.90326
  0
VERTEX
  10
162.66129
  20
108.27203
  0
VERTEX
  10
162.3511
  20
107.65761
  0
VERTEX
  10
162.01288
  20
107.06087
  0
VERTEX
  10
161.64752
  20
106.4827
  0
VERTEX
  10
161.25592
  20
105.924
  0
VERTEX
  10
160.83893
  20
105.38568
  0
VERTEX
  10
160.39743
  20
104.86862
  0
VERTEX
  10
159.93234
  20
104.37373
  0
VERTEX
  10
159.44452
  20
103.9019
  0
VERTEX
  10
158.93484
  20
103.45402
  0
VERTEX
  10
158.40421
  20
103.03098
  0
VERTEX
  10
157.85352
  20
102.63368
  0
VERTEX
  10
157.2836
  20
102.26303
  0
VERTEX
  10
156.69539
  20
101.91991
  0
VERTEX
  10
156.08974
  20
101.60521
  0
VERTEX
  10
155.46753
  20
101.31984
  0
VERTEX
  10
154.82967
  20
101.0647
  0
VERTEX
  10
154.177
  20
100.84066
  0
VERTEX
  10
153.51044
  20
100.64864
  0
VERTEX
  10
152.83087
  20
100.48952
  0
VERTEX
  10
152.13914
  20
100.3642
  0
VERTEX
  10
151.43619
  20
100.27357
  0
VERTEX
  10
150.72284
  20
100.21855
  0
VERTEX
  10
150.00002
  20
100.2
  0
VERTEX
  10
149.27719
  20
100.21855
  0
VERTEX
  10
148.56384
  20
100.27357
  0
VERTEX
  10
147.86089
  20
100.3642
  0
VERTEX
  10
147.16916
  20
100.48952
  0
VERTEX
  10
146.48959
  20
100.64864
  0
VERTEX
  10
145.82303
  20
100.84066
  0
VERTEX
  10
145.17036
  20
101.0647
  0
VERTEX
  10
144.5325
  20
101.31984
  0
VERTEX
  10
143.91029
  20
101.60521
  0
VERTEX
  10
143.30464
  20
101.91991
  0
VERTEX
  10
142.71643
  20
102.26303
  0
VERTEX
  10
142.14651
  20
102.63368
  0
VERTEX
  10
141.59583
  20
103.03098
  0
VERTEX
  10
141.06519
  20
103.45402
  0
VERTEX
  10
140.55551
  20
103.9019
  0
VERTEX
  10
140.06769
  20
104.37373
  0
VERTEX
  10
139.6026
  20
104.86862
  0
VERTEX
  10
139.1611
  20
105.38568
  0
VERTEX
  10
138.74411
  20
105.924
  0
VERTEX
  10
138.35251
  20
106.4827
  0
VERTEX
  10
137.98715
  20
107.06087
  0
VERTEX
  10
137.64893
  20
107.65761
  0
VERTEX
  10
137.33875
  20
108.27203
  0
VERTEX
  10
137.05743
  20
108.90326
  0
VERTEX
  10
136.80592
  20
109.55038
  0
VERTEX
  10
136.58508
  20
110.21249
  0
VERTEX
  10
136.39581
  20
110.88872
  0
VERTEX
  10
136.23895
  20
111.57814
  0
VERTEX
  10
136.11543
  20
112.27988
  0
VERTEX
  10
136.02611
  20
112.99303
  0
VERTEX
  10
135.97186
  20
113.71671
  0
VERTEX
  10
135.95358
  20
114.45
  0
VERTEX
  10
135.97186
  20
115.1833
  0
VERTEX
  10
136.02611
  20
115.90698
  0
VERTEX
  10
136.11543
  20
116.62013
  0
VERTEX
  10
136.23895
  20
117.32187
  0
VERTEX
  10
136.39581
  20
118.01129
  0
VERTEX
  10
136.58508
  20
118.68752
  0
VERTEX
  10
136.80592
  20
119.34963
  0
VERTEX
  10
137.05743
  20
119.99675
  0
VERTEX
  10
137.33875
  20
120.62798
  0
VERTEX
  10
137.64893
  20
121.2424
  0
VERTEX
  10
137.98715
  20
121.83914
  0
VERTEX
  10
138.35251
  20
122.41731
  0
VERTEX
  10
138.74411
  20
122.97601
  0
VERTEX
  10
139.1611
  20
123.51433
  0
VERTEX
  10
139.6026
  20
124.03139
  0
VERTEX
  10
140.06769
  20
124.52628
  0
VERTEX
  10
140.55551
  20
124.99812
  0
VERTEX
  10
141.06519
  20
125.44601
  0
VERTEX
  10
141.59583
  20
125.86904
  0
VERTEX
  10
142.14651
  20
126.26634
  0
VERTEX
  10
142.71643
  20
126.63699
  0
VERTEX
  10
143.30464
  20
126.98012
  0
VERTEX
  10
143.91029
  20
127.29481
  0
VERTEX
  10
144.5325
  20
127.58018
  0
VERTEX
  10
145.17036
  20
127.83533
  0
VERTEX
  10
145.82303
  20
128.05936
  0
VERTEX
  10
146.48959
  20
128.25137
  0
VERTEX
  10
147.16916
  20
128.41049
  0
VERTEX
  10
147.86089
  20
128.53581
  0
VERTEX
  10
148.56384
  20
128.62643
  0
VERTEX
  10
149.27719
  20
128.68147
  0
VERTEX
  10
150.00002
  20
128.70001
  0
VERTEX
  10
150.72284
  20
128.68147
  0
VERTEX
  10
151.43619
  20
128.62643
  0
VERTEX
  10
152.13914
  20
128.53581
  0
VERTEX
  10
152.83087
  20
128.41049
  0
VERTEX
  10
153.51044
  20
128.25137
  0
VERTEX
  10
154.177
  20
128.05936
  0
VERTEX
  10
154.82967
  20
127.83533
  0
VERTEX
  10
155.46753
  20
127.58018
  0
VERTEX
  10
156.08974
  20
127.29481
  0
VERTEX
  10
156.69539
  20
126.98012
  0
VERTEX
  10
157.2836
  20
126.63699
  0
VERTEX
  10
157.85352
  20
126.26634
  0
VERTEX
  10
158.40421
  20
125.86904
  0
VERTEX
  10
158.93484
  20
125.44601
  0
VERTEX
  10
159.44452
  20
124.99812
  0
VERTEX
  10
159.93234
  20
124.52628
  0
VERTEX
  10
160.39743
  20
124.03139
  0
VERTEX
  10
160.83893
  20
123.51433
  0
VERTEX
  10
161.25592
  20
122.97601
  0
VERTEX
  10
161.64752
  20
122.41731
  0
VERTEX
  10
162.01288
  20
121.83914
  0
VERTEX
  10
162.3511
  20
121.2424
  0
VERTEX
  10
162.66129
  20
120.62798
  0
VERTEX
  10
162.9426
  20
119.99675
  0
VERTEX
  10
163.19411
  20
119.34963
  0
VERTEX
  10
163.41495
  20
118.68752
  0
VERTEX
  10
163.60422
  20
118.01129
  0
VERTEX
  10
163.76108
  20
117.32187
  0
VERTEX
  10
163.8846
  20
116.62013
  0
VERTEX
  10
163.97392
  20
115.90698
  0
VERTEX
  10
164.02817
  20
115.1833
  0
VERTEX
  10
164.04645
  20
114.45
  0
SEQEND
  0
POLYLINE
  62
0
  70
1
  0
VERTEX
  10
115.5
  20
191.45001
  0
VERTEX
  10
115.54005
  20
191.85309
  0
VERTEX
  10
115.65492
  20
192.2285
  0
VERTEX
  10
115.83669
  20
192.56822
  0
VERTEX
  10
116.07742
  20
192.86423
  0
VERTEX
  10
116.36919
  20
193.10844
  0
VERTEX
  10
116.70406
  20
193.29285
  0
VERTEX
  10
117.07412
  20
193.40938
  0
VERTEX
  10
117.47143
  20
193.45001
  0
VERTEX
  10
182.52859
  20
193.45001
  0
VERTEX
  10
182.9259
  20
193.40938
  0
VERTEX
  10
183.29594
  20
193.29285
  0
VERTEX
  10
183.63083
  20
193.10844
  0
VERTEX
  10
183.92259
  20
192.86423
  0
VERTEX
  10
184.16333
  20
192.56822
  0
VERTEX
  10
184.34509
  20
192.2285
  0
VERTEX
  10
184.45998
  20
191.85309
  0
VERTEX
  10
184.50002
  20
191.45001
  0
VERTEX
  10
184.50002
  20
8.5500031
  0
VERTEX
  10
184.45998
  20
8.1469336
  0
VERTEX
  10
184.34509
  20
7.771513
  0
VERTEX
  10
184.16333
  20
7.4317846
  0
VERTEX
  10
183.92259
  20
7.1357899
  0
VERTEX
  10
183.63083
  20
6.891572
  0
VERTEX
  10
183.29594
  20
6.7071733
  0
VERTEX
  10
182.9259
  20
6.5906363
  0
VERTEX
  10
182.52859
  20
6.5500031
  0
VERTEX
  10
117.47143
  20
6.5500031
  0
VERTEX
  10
117.07412
  20
6.5906363
  0
VERTEX
  10
116.70406
  20
6.7071733
  0
VERTEX
  10
116.36919
  20
6.891572
  0
VERTEX
  10
116.07742
  20
7.1357899
  0
VERTEX
  10
115.83669
  20
7.4317846
  0
VERTEX
  10
115.65492
  20
7.771513
  0
VERTEX
  10
115.54005
  20
8.1469336
  0
VERTEX
  10
115.5
  20
8.5500031
  0
VERTEX
  10
115.5
  20
191.45001
  0
SEQEND
  0
ENDSEC
  0
EOF
