  0
SECTION
  2
HEADER
  9
$ACADVER
  1
AC1012
  9
$DWGCODEPAGE
  3
undefined
  9
$INSBASE
 10
0.0
 20
0.0
 30
0.0
  9
$EXTMIN
 10
1.000000000000000E+20
 20
1.000000000000000E+20
 30
1.000000000000000E+20
  9
$EXTMAX
 10
-1.000000000000000E+20
 20
-1.000000000000000E+20
 30
-1.000000000000000E+20
  9
$LIMMIN
 10
0.0
 20
0.0
  9
$LIMMAX
 10
12.0
 20
9.0
  9
$ORTHOMODE
 70
     0
  9
$REGENMODE
 70
     1
  9
$FILLMODE
 70
     1
  9
$QTEXTMODE
 70
     0
  9
$MIRRTEXT
 70
     1
  9
$DRAGMODE
 70
     2
  9
$LTSCALE
 40
1.0
  9
$OSMODE
 70
    37
  9
$ATTMODE
 70
     1
  9
$TEXTSIZE
 40
0.2
  9
$TRACEWID
 40
0.05
  9
$TEXTSTYLE
  7
STANDARD
  9
$CLAYER
  8
0
  9
$CELTYPE
  6
BYLAYER
  9
$CECOLOR
 62
   256
  9
$CELTSCALE
 40
1.0
  9
$DELOBJ
 70
     1
  9
$DISPSILH
 70
     0
  9
$DIMSCALE
 40
1.0
  9
$DIMASZ
 40
0.18
  9
$DIMEXO
 40
0.0625
  9
$DIMDLI
 40
0.38
  9
$DIMRND
 40
0.0
  9
$DIMDLE
 40
0.0
  9
$DIMEXE
 40
0.18
  9
$DIMTP
 40
0.0
  9
$DIMTM
 40
0.0
  9
$DIMTXT
 40
0.18
  9
$DIMCEN
 40
0.09
  9
$DIMTSZ
 40
0.0
  9
$DIMTOL
 70
     0
  9
$DIMLIM
 70
     0
  9
$DIMTIH
 70
     1
  9
$DIMTOH
 70
     1
  9
$DIMSE1
 70
     0
  9
$DIMSE2
 70
     0
  9
$DIMTAD
 70
     0
  9
$DIMZIN
 70
     0
  9
$DIMBLK
  1

  9
$DIMASO
 70
     1
  9
$DIMSHO
 70
     1
  9
$DIMPOST
  1

  9
$DIMAPOST
  1

  9
$DIMALT
 70
     0
  9
$DIMALTD
 70
     2
  9
$DIMALTF
 40
25.4
  9
$DIMLFAC
 40
1.0
  9
$DIMTOFL
 70
     0
  9
$DIMTVP
 40
0.0
  9
$DIMTIX
 70
     0
  9
$DIMSOXD
 70
     0
  9
$DIMSAH
 70
     0
  9
$DIMBLK1
  1

  9
$DIMBLK2
  1

  9
$DIMSTYLE
  2
STANDARD
  9
$DIMCLRD
 70
     0
  9
$DIMCLRE
 70
     0
  9
$DIMCLRT
 70
     0
  9
$DIMTFAC
 40
1.0
  9
$DIMGAP
 40
0.09
  9
$DIMJUST
 70
     0
  9
$DIMSD1
 70
     0
  9
$DIMSD2
 70
     0
  9
$DIMTOLJ
 70
     1
  9
$DIMTZIN
 70
     0
  9
$DIMALTZ
 70
     0
  9
$DIMALTTZ
 70
     0
  9
$DIMFIT
 70
     3
  9
$DIMUPT
 70
     0
  9
$DIMUNIT
 70
     2
  9
$DIMDEC
 70
     4
  9
$DIMTDEC
 70
     4
  9
$DIMALTU
 70
     2
  9
$DIMALTTD
 70
     2
  9
$DIMTXSTY
  7
STANDARD
  9
$DIMAUNIT
 70
     0
  9
$LUNITS
 70
     2
  9
$LUPREC
 70
     4
  9
$SKETCHINC
 40
0.1
  9
$FILLETRAD
 40
0.5
  9
$AUNITS
 70
     0
  9
$AUPREC
 70
     0
  9
$MENU
  1
.
  9
$ELEVATION
 40
0.0
  9
$PELEVATION
 40
0.0
  9
$THICKNESS
 40
0.0
  9
$LIMCHECK
 70
     0
  9
$CHAMFERA
 40
0.5
  9
$CHAMFERB
 40
0.5
  9
$CHAMFERC
 40
1.0
  9
$CHAMFERD
 40
0.0
  9
$SKPOLY
 70
     0
  9
$TDCREATE
 40
2458689.209016192
  9
$TDUPDATE
 40
2458689.209016192
  9
$TDINDWG
 40
0.0000000116
  9
$TDUSRTIMER
 40
0.0000000116
  9
$USRTIMER
 70
     1
  9
$ANGBASE
 50
0.0
  9
$ANGDIR
 70
     0
  9
$PDMODE
 70
     0
  9
$PDSIZE
 40
0.0
  9
$PLINEWID
 40
0.0
  9
$COORDS
 70
     1
  9
$SPLFRAME
 70
     0
  9
$SPLINETYPE
 70
     6
  9
$SPLINESEGS
 70
     8
  9
$ATTDIA
 70
     0
  9
$ATTREQ
 70
     1
  9
$HANDLING
 70
     1
  9
$HANDSEED
  5
112
  9
$SURFTAB1
 70
     6
  9
$SURFTAB2
 70
     6
  9
$SURFTYPE
 70
     6
  9
$SURFU
 70
     6
  9
$SURFV
 70
     6
  9
$UCSNAME
  2

  9
$UCSORG
 10
0.0
 20
0.0
 30
0.0
  9
$UCSXDIR
 10
1.0
 20
0.0
 30
0.0
  9
$UCSYDIR
 10
0.0
 20
1.0
 30
0.0
  9
$PUCSNAME
  2

  9
$PUCSORG
 10
0.0
 20
0.0
 30
0.0
  9
$PUCSXDIR
 10
1.0
 20
0.0
 30
0.0
  9
$PUCSYDIR
 10
0.0
 20
1.0
 30
0.0
  9
$USERI1
 70
     0
  9
$USERI2
 70
     0
  9
$USERI3
 70
     0
  9
$USERI4
 70
     0
  9
$USERI5
 70
     0
  9
$USERR1
 40
0.0
  9
$USERR2
 40
0.0
  9
$USERR3
 40
0.0
  9
$USERR4
 40
0.0
  9
$USERR5
 40
0.0
  9
$WORLDVIEW
 70
     1
  9
$SHADEDGE
 70
     3
  9
$SHADEDIF
 70
    70
  9
$TILEMODE
 70
     1
  9
$MAXACTVP
 70
    64
  9
$PINSBASE
 10
0.0
 20
0.0
 30
0.0
  9
$PLIMCHECK
 70
     0
  9
$PEXTMIN
 10
1.000000000000000E+20
 20
1.000000000000000E+20
 30
1.000000000000000E+20
  9
$PEXTMAX
 10
-1.000000000000000E+20
 20
-1.000000000000000E+20
 30
-1.000000000000000E+20
  9
$PLIMMIN
 10
0.0
 20
0.0
  9
$PLIMMAX
 10
12.0
 20
9.0
  9
$UNITMODE
 70
     0
  9
$VISRETAIN
 70
     1
  9
$PLINEGEN
 70
     0
  9
$PSLTSCALE
 70
     1
  9
$TREEDEPTH
 70
  3020
  9
$PICKSTYLE
 70
     1
  9
$CMLSTYLE
  2
STANDARD
  9
$CMLJUST
 70
     0
  9
$CMLSCALE
 40
1.0
  9
$SAVEIMAGES
 70
     1
  0
ENDSEC
  0
SECTION
  2
CLASSES
  0
CLASS
  1
ACDBDICTIONARYWDFLT
  2
AcDbDictionaryWithDefault
  3
ObjectDBX Classes
 90
    32768
280
     0
281
     0
  0
CLASS
  1
VISUALSTYLE
  2
AcDbVisualStyle
  3
ObjectDBX Classes
 90
     4095
280
     0
281
     0
  0
CLASS
  1
MATERIAL
  2
AcDbMaterial
  3
ObjectDBX Classes
 90
     1153
280
     0
281
     0
  0
CLASS
  1
SUN
  2
AcDbSun
  3
SCENEOE
 90
     1024
280
     0
281
     0
  0
CLASS
  1
DICTIONARYVAR
  2
AcDbDictionaryVar
  3
ObjectDBX Classes
 90
        0
280
     0
281
     0
  0
CLASS
  1
XRECORD
  2
AcDbXrecord
  3
AutoCAD 2000
 90
    32768
280
     0
281
     0
  0
CLASS
  1
LWPOLYLINE
  2
AcDbPolyline
  3
AutoCAD 2000
 90
    32768
280
     0
281
     1
  0
CLASS
  1
HATCH
  2
AcDbHatch
  3
AutoCAD 2000
 90
    32768
280
     0
281
     1
  0
CLASS
  1
ACDBPLACEHOLDER
  2
AcDbPlaceHolder
  3
ObjectDBX Classes
 90
        0
280
     0
281
     0
  0
CLASS
  1
LAYOUT
  2
AcDbLayout
  3
ObjectDBX Classes
 90
        0
280
     0
281
     0
  0
ENDSEC
  0
SECTION
  2
TABLES
  0
TABLE
  2
VPORT
  5
8
330
0
100
AcDbSymbolTable
 70
     1
  0
VPORT
  5
29
330
8
100
AcDbSymbolTableRecord
100
AcDbViewportTableRecord
  2
*ACTIVE
 70
     0
 10
0.0
 20
0.0
 11
1.0
 21
1.0
 12
0.0
 22
0.0
 13
0.0
 23
0.0
 14
0.5
 24
0.5
 15
0.5
 25
0.5
 16
0.0
 26
0.0
 36
1.0
 17
104.9999999737534
 27
148.4999999628701
 37
0.0
 40
296.9999999257402
 41
0.7070707070707533
 42
50.0
 43
0.0
 44
0.0
 50
0.0
 51
0.0
 71
     0
 72
   100
 73
     1
 74
     3
 75
     0
 76
     0
 77
     0
 78
     0
  0
ENDTAB
  0
TABLE
  2
LTYPE
  5
5
330
0
100
AcDbSymbolTable
 70
     1
  0
LTYPE
  5
14
330
5
100
AcDbSymbolTableRecord
100
AcDbLinetypeTableRecord
  2
BYBLOCK
 70
     0
  3

 72
    65
 73
     0
 40
0.0
  0
LTYPE
  5
15
330
5
100
AcDbSymbolTableRecord
100
AcDbLinetypeTableRecord
  2
BYLAYER
 70
     0
  3

 72
    65
 73
     0
 40
0.0
  0
LTYPE
  5
16
330
5
100
AcDbSymbolTableRecord
100
AcDbLinetypeTableRecord
  2
CONTINUOUS
 70
     0
  3
Solid line
 72
    65
 73
     0
 40
0.0
  0
ENDTAB
  0
TABLE
  2
LAYER
  5
2
330
0
100
AcDbSymbolTable
 70
     1
  0
LAYER
  5
10
330
2
100
AcDbSymbolTableRecord
100
AcDbLayerTableRecord
  2
0
 70
     0
 62
     7
  6
CONTINUOUS
  0
ENDTAB
  0
TABLE
  2
STYLE
  5
3
330
0
100
AcDbSymbolTable
 70
     1
  0
STYLE
  5
11
330
3
100
AcDbSymbolTableRecord
100
AcDbTextStyleTableRecord
  2
STANDARD
 70
     0
 40
0.0
 41
1.0
 50
0.0
 71
     0
 42
0.2
  3
txt
  4

  0
ENDTAB
  0
TABLE
  2
VIEW
  5
6
330
0
100
AcDbSymbolTable
 70
     0
  0
ENDTAB
  0
TABLE
  2
UCS
  5
7
330
0
100
AcDbSymbolTable
 70
     0
  0
ENDTAB
  0
TABLE
  2
APPID
  5
9
330
0
100
AcDbSymbolTable
 70
     1
  0
APPID
  5
12
330
9
100
AcDbSymbolTableRecord
100
AcDbRegAppTableRecord
  2
ACAD
 70
     0
  0
ENDTAB
  0
TABLE
  2
DIMSTYLE
  5
A
330
0
100
AcDbSymbolTable
 70
     1
  0
DIMSTYLE
105
27
330
A
100
AcDbSymbolTableRecord
100
AcDbDimStyleTableRecord
  2
STANDARD
 70
     0
  3

  4

  5

  6

  7

 40
1.0
 41
0.18
 42
0.0625
 43
0.38
 44
0.18
 45
0.0
 46
0.0
 47
0.0
 48
0.0
140
0.18
141
0.09
142
0.0
143
25.4
144
1.0
145
0.0
146
1.0
147
0.09
 71
     0
 72
     0
 73
     1
 74
     1
 75
     0
 76
     0
 77
     0
 78
     0
170
     0
171
     2
172
     0
173
     0
174
     0
175
     0
176
     0
177
     0
178
     0
270
     2
271
     4
272
     4
273
     2
274
     2
340
11
275
     0
280
     0
281
     0
282
     0
283
     1
284
     0
285
     0
286
     0
287
     3
288
     0
  0
ENDTAB
  0
TABLE
  2
BLOCK_RECORD
  5
1
330
0
100
AcDbSymbolTable
 70
    18
  0
BLOCK_RECORD
  5
1F
330
1
100
AcDbSymbolTableRecord
100
AcDbBlockTableRecord
  2
*MODEL_SPACE
  0
BLOCK_RECORD
  5
1B
330
1
100
AcDbSymbolTableRecord
100
AcDbBlockTableRecord
  2
*PAPER_SPACE
  0
BLOCK_RECORD
  5
40
330
1
100
AcDbSymbolTableRecord
100
AcDbBlockTableRecord
  2
BLOCK_2
  0
BLOCK_RECORD
  5
45
330
1
100
AcDbSymbolTableRecord
100
AcDbBlockTableRecord
  2
BLOCK_3
  0
BLOCK_RECORD
  5
4A
330
1
100
AcDbSymbolTableRecord
100
AcDbBlockTableRecord
  2
BLOCK_4
  0
BLOCK_RECORD
  5
4F
330
1
100
AcDbSymbolTableRecord
100
AcDbBlockTableRecord
  2
BLOCK_5
  0
BLOCK_RECORD
  5
54
330
1
100
AcDbSymbolTableRecord
100
AcDbBlockTableRecord
  2
BLOCK_6
  0
BLOCK_RECORD
  5
59
330
1
100
AcDbSymbolTableRecord
100
AcDbBlockTableRecord
  2
BLOCK_7
  0
BLOCK_RECORD
  5
5E
330
1
100
AcDbSymbolTableRecord
100
AcDbBlockTableRecord
  2
BLOCK_8
  0
BLOCK_RECORD
  5
63
330
1
100
AcDbSymbolTableRecord
100
AcDbBlockTableRecord
  2
BLOCK_9
  0
BLOCK_RECORD
  5
68
330
1
100
AcDbSymbolTableRecord
100
AcDbBlockTableRecord
  2
BLOCK_10
  0
BLOCK_RECORD
  5
6D
330
1
100
AcDbSymbolTableRecord
100
AcDbBlockTableRecord
  2
BLOCK_11
  0
BLOCK_RECORD
  5
72
330
1
100
AcDbSymbolTableRecord
100
AcDbBlockTableRecord
  2
BLOCK_12
  0
BLOCK_RECORD
  5
77
330
1
100
AcDbSymbolTableRecord
100
AcDbBlockTableRecord
  2
BLOCK_13
  0
BLOCK_RECORD
  5
7C
330
1
100
AcDbSymbolTableRecord
100
AcDbBlockTableRecord
  2
BLOCK_14
  0
BLOCK_RECORD
  5
A7
330
1
100
AcDbSymbolTableRecord
100
AcDbBlockTableRecord
  2
BLOCK_15
  0
BLOCK_RECORD
  5
AC
330
1
100
AcDbSymbolTableRecord
100
AcDbBlockTableRecord
  2
BLOCK_16
  0
BLOCK_RECORD
  5
D7
330
1
100
AcDbSymbolTableRecord
100
AcDbBlockTableRecord
  2
BLOCK_17
  0
BLOCK_RECORD
  5
DC
330
1
100
AcDbSymbolTableRecord
100
AcDbBlockTableRecord
  2
BLOCK_18
  0
ENDTAB
  0
ENDSEC
  0
SECTION
  2
BLOCKS
  0
BLOCK
  5
20
330
1F
100
AcDbEntity
  8
0
100
AcDbBlockBegin
  2
*MODEL_SPACE
 70
     0
 10
0.0
 20
0.0
 30
0.0
  3
*MODEL_SPACE
  1

  0
ENDBLK
  5
21
330
1F
100
AcDbEntity
  8
0
100
AcDbBlockEnd
  0
BLOCK
  5
1C
330
1B
100
AcDbEntity
 67
     1
  8
0
100
AcDbBlockBegin
  2
*PAPER_SPACE
 70
     0
 10
0.0
 20
0.0
 30
0.0
  3
*PAPER_SPACE
  1

  0
ENDBLK
  5
1D
330
1B
100
AcDbEntity
 67
     1
  8
0
100
AcDbBlockEnd
  0
BLOCK
  5
42
330
40
100
AcDbEntity
  8
0
100
AcDbBlockBegin
  2
BLOCK_2
 70
     0
 10
0.0
 20
0.0
 30
0.0
  3
BLOCK_2
  1

  0
SPLINE
  5
44
330
40
100
AcDbEntity
  8
0
 62
     7
100
AcDbSpline
210
0.0
220
0.0
230
1.0
 70
    11
 71
     3
 72
    20
 73
    16
 74
     0
 42
0.0000000001
 43
0.0000000001
 12
1.0
 22
0.0
 32
0.0
 13
1.0
 23
0.0
 33
0.0
 40
0.0
 40
0.0
 40
0.0
 40
0.0
 40
1.0
 40
1.0
 40
1.0
 40
2.0
 40
2.0
 40
2.0
 40
3.0
 40
3.0
 40
3.0
 40
4.0
 40
4.0
 40
4.0
 40
5.0
 40
5.0
 40
5.0
 40
5.0
 10
216.3509927304613
 20
107.4597186234944
 30
0.0
 10
216.3509927304613
 20
108.2881457482405
 30
0.0
 10
217.0225656057149
 20
108.9597186234948
 30
0.0
 10
217.850992730461
 20
108.9597186234948
 30
0.0
 10
218.6794198552078
 20
108.9597186234948
 30
0.0
 10
219.3509927304614
 20
108.2881457482405
 30
0.0
 10
219.3509927304614
 20
107.4597186234944
 30
0.0
 10
219.3509927304614
 20
106.6312914987483
 30
0.0
 10
218.6794198552078
 20
105.9597186234947
 30
0.0
 10
217.850992730461
 20
105.9597186234947
 30
0.0
 10
217.0225656057149
 20
105.9597186234947
 30
0.0
 10
216.3509927304613
 20
106.6312914987483
 30
0.0
 10
216.3509927304613
 20
107.4597186234944
 30
0.0
 10
216.3509927304613
 20
107.4597186234944
 30
0.0
 10
216.3509927304613
 20
107.4597186234944
 30
0.0
 10
216.3509927304613
 20
107.4597186234944
 30
0.0
  0
ENDBLK
  5
43
330
40
100
AcDbEntity
  8
0
100
AcDbBlockEnd
  0
BLOCK
  5
47
330
45
100
AcDbEntity
  8
0
100
AcDbBlockBegin
  2
BLOCK_3
 70
     0
 10
0.0
 20
0.0
 30
0.0
  3
BLOCK_3
  1

  0
SPLINE
  5
49
330
45
100
AcDbEntity
  8
0
 62
     7
100
AcDbSpline
210
0.0
220
0.0
230
1.0
 70
    11
 71
     3
 72
    20
 73
    16
 74
     0
 42
0.0000000001
 43
0.0000000001
 12
1.0
 22
0.0
 32
0.0
 13
1.0
 23
0.0
 33
0.0
 40
0.0
 40
0.0
 40
0.0
 40
0.0
 40
1.0
 40
1.0
 40
1.0
 40
2.0
 40
2.0
 40
2.0
 40
3.0
 40
3.0
 40
3.0
 40
4.0
 40
4.0
 40
4.0
 40
5.0
 40
5.0
 40
5.0
 40
5.0
 10
159.1795577304614
 20
107.4597186234944
 30
0.0
 10
159.1795577304614
 20
108.2881457482405
 30
0.0
 10
159.851130605715
 20
108.9597186234948
 30
0.0
 10
160.6795577304611
 20
108.9597186234948
 30
0.0
 10
161.5079848552079
 20
108.9597186234948
 30
0.0
 10
162.1795577304615
 20
108.2881457482405
 30
0.0
 10
162.1795577304615
 20
107.4597186234944
 30
0.0
 10
162.1795577304615
 20
106.6312914987483
 30
0.0
 10
161.5079848552079
 20
105.9597186234947
 30
0.0
 10
160.6795577304611
 20
105.9597186234947
 30
0.0
 10
159.851130605715
 20
105.9597186234947
 30
0.0
 10
159.1795577304614
 20
106.6312914987483
 30
0.0
 10
159.1795577304614
 20
107.4597186234944
 30
0.0
 10
159.1795577304614
 20
107.4597186234944
 30
0.0
 10
159.1795577304614
 20
107.4597186234944
 30
0.0
 10
159.1795577304614
 20
107.4597186234944
 30
0.0
  0
ENDBLK
  5
48
330
45
100
AcDbEntity
  8
0
100
AcDbBlockEnd
  0
BLOCK
  5
4C
330
4A
100
AcDbEntity
  8
0
100
AcDbBlockBegin
  2
BLOCK_4
 70
     0
 10
0.0
 20
0.0
 30
0.0
  3
BLOCK_4
  1

  0
SPLINE
  5
4E
330
4A
100
AcDbEntity
  8
0
 62
     7
100
AcDbSpline
210
0.0
220
0.0
230
1.0
 70
    11
 71
     3
 72
    20
 73
    16
 74
     0
 42
0.0000000001
 43
0.0000000001
 12
1.0
 22
0.0
 32
0.0
 13
1.0
 23
0.0
 33
0.0
 40
0.0
 40
0.0
 40
0.0
 40
0.0
 40
1.0
 40
1.0
 40
1.0
 40
2.0
 40
2.0
 40
2.0
 40
3.0
 40
3.0
 40
3.0
 40
4.0
 40
4.0
 40
4.0
 40
5.0
 40
5.0
 40
5.0
 40
5.0
 10
216.3509927304613
 20
282.3597256234945
 30
0.0
 10
216.3509927304613
 20
283.1881527482408
 30
0.0
 10
217.0225656057149
 20
283.8597256234945
 30
0.0
 10
217.850992730461
 20
283.8597256234945
 30
0.0
 10
218.6794198552078
 20
283.8597256234945
 30
0.0
 10
219.3509927304614
 20
283.1881527482408
 30
0.0
 10
219.3509927304614
 20
282.3597256234945
 30
0.0
 10
219.3509927304614
 20
281.5312984987483
 30
0.0
 10
218.6794198552078
 20
280.8597256234947
 30
0.0
 10
217.850992730461
 20
280.8597256234947
 30
0.0
 10
217.0225656057149
 20
280.8597256234947
 30
0.0
 10
216.3509927304613
 20
281.5312984987483
 30
0.0
 10
216.3509927304613
 20
282.3597256234945
 30
0.0
 10
216.3509927304613
 20
282.3597256234945
 30
0.0
 10
216.3509927304613
 20
282.3597256234945
 30
0.0
 10
216.3509927304613
 20
282.3597256234945
 30
0.0
  0
ENDBLK
  5
4D
330
4A
100
AcDbEntity
  8
0
100
AcDbBlockEnd
  0
BLOCK
  5
51
330
4F
100
AcDbEntity
  8
0
100
AcDbBlockBegin
  2
BLOCK_5
 70
     0
 10
0.0
 20
0.0
 30
0.0
  3
BLOCK_5
  1

  0
SPLINE
  5
53
330
4F
100
AcDbEntity
  8
0
 62
     7
100
AcDbSpline
210
0.0
220
0.0
230
1.0
 70
    11
 71
     3
 72
    20
 73
    16
 74
     0
 42
0.0000000001
 43
0.0000000001
 12
1.0
 22
0.0
 32
0.0
 13
1.0
 23
0.0
 33
0.0
 40
0.0
 40
0.0
 40
0.0
 40
0.0
 40
1.0
 40
1.0
 40
1.0
 40
2.0
 40
2.0
 40
2.0
 40
3.0
 40
3.0
 40
3.0
 40
4.0
 40
4.0
 40
4.0
 40
5.0
 40
5.0
 40
5.0
 40
5.0
 10
159.1795577304607
 20
282.3597256234945
 30
0.0
 10
159.1795577304607
 20
283.1881527482408
 30
0.0
 10
159.8511306057143
 20
283.8597256234945
 30
0.0
 10
160.6795577304605
 20
283.8597256234945
 30
0.0
 10
161.5079848552072
 20
283.8597256234945
 30
0.0
 10
162.1795577304608
 20
283.1881527482408
 30
0.0
 10
162.1795577304608
 20
282.3597256234945
 30
0.0
 10
162.1795577304608
 20
281.5312984987483
 30
0.0
 10
161.5079848552072
 20
280.8597256234947
 30
0.0
 10
160.6795577304605
 20
280.8597256234947
 30
0.0
 10
159.8511306057143
 20
280.8597256234947
 30
0.0
 10
159.1795577304607
 20
281.5312984987483
 30
0.0
 10
159.1795577304607
 20
282.3597256234945
 30
0.0
 10
159.1795577304607
 20
282.3597256234945
 30
0.0
 10
159.1795577304607
 20
282.3597256234945
 30
0.0
 10
159.1795577304607
 20
282.3597256234945
 30
0.0
  0
ENDBLK
  5
52
330
4F
100
AcDbEntity
  8
0
100
AcDbBlockEnd
  0
BLOCK
  5
56
330
54
100
AcDbEntity
  8
0
100
AcDbBlockBegin
  2
BLOCK_6
 70
     0
 10
0.0
 20
0.0
 30
0.0
  3
BLOCK_6
  1

  0
SPLINE
  5
58
330
54
100
AcDbEntity
  8
0
 62
     7
100
AcDbSpline
210
0.0
220
0.0
230
1.0
 70
    11
 71
     3
 72
    20
 73
    16
 74
     0
 42
0.0000000001
 43
0.0000000001
 12
1.0
 22
0.0
 32
0.0
 13
1.0
 23
0.0
 33
0.0
 40
0.0
 40
0.0
 40
0.0
 40
0.0
 40
1.0
 40
1.0
 40
1.0
 40
2.0
 40
2.0
 40
2.0
 40
3.0
 40
3.0
 40
3.0
 40
4.0
 40
4.0
 40
4.0
 40
5.0
 40
5.0
 40
5.0
 40
5.0
 10
142.2676594156488
 20
282.3597256234945
 30
0.0
 10
142.2676594156488
 20
283.1881527482408
 30
0.0
 10
142.9392322909024
 20
283.8597256234945
 30
0.0
 10
143.7676594156485
 20
283.8597256234945
 30
0.0
 10
144.5960865403952
 20
283.8597256234945
 30
0.0
 10
145.2676594156489
 20
283.1881527482408
 30
0.0
 10
145.2676594156489
 20
282.3597256234945
 30
0.0
 10
145.2676594156489
 20
281.5312984987483
 30
0.0
 10
144.5960865403952
 20
280.8597256234947
 30
0.0
 10
143.7676594156485
 20
280.8597256234947
 30
0.0
 10
142.9392322909024
 20
280.8597256234947
 30
0.0
 10
142.2676594156488
 20
281.5312984987483
 30
0.0
 10
142.2676594156488
 20
282.3597256234945
 30
0.0
 10
142.2676594156488
 20
282.3597256234945
 30
0.0
 10
142.2676594156488
 20
282.3597256234945
 30
0.0
 10
142.2676594156488
 20
282.3597256234945
 30
0.0
  0
ENDBLK
  5
57
330
54
100
AcDbEntity
  8
0
100
AcDbBlockEnd
  0
BLOCK
  5
5B
330
59
100
AcDbEntity
  8
0
100
AcDbBlockBegin
  2
BLOCK_7
 70
     0
 10
0.0
 20
0.0
 30
0.0
  3
BLOCK_7
  1

  0
SPLINE
  5
5D
330
59
100
AcDbEntity
  8
0
 62
     7
100
AcDbSpline
210
0.0
220
0.0
230
1.0
 70
    11
 71
     3
 72
    20
 73
    16
 74
     0
 42
0.0000000001
 43
0.0000000001
 12
1.0
 22
0.0
 32
0.0
 13
1.0
 23
0.0
 33
0.0
 40
0.0
 40
0.0
 40
0.0
 40
0.0
 40
1.0
 40
1.0
 40
1.0
 40
2.0
 40
2.0
 40
2.0
 40
3.0
 40
3.0
 40
3.0
 40
4.0
 40
4.0
 40
4.0
 40
5.0
 40
5.0
 40
5.0
 40
5.0
 10
85.09622441564822
 20
282.3597256234945
 30
0.0
 10
85.09622441564822
 20
283.1881527482408
 30
0.0
 10
85.76779729090184
 20
283.8597256234945
 30
0.0
 10
86.59622441564795
 20
283.8597256234945
 30
0.0
 10
87.4246515403947
 20
283.8597256234945
 30
0.0
 10
88.09622441564832
 20
283.1881527482408
 30
0.0
 10
88.09622441564832
 20
282.3597256234945
 30
0.0
 10
88.09622441564832
 20
281.5312984987483
 30
0.0
 10
87.4246515403947
 20
280.8597256234947
 30
0.0
 10
86.59622441564795
 20
280.8597256234947
 30
0.0
 10
85.76779729090184
 20
280.8597256234947
 30
0.0
 10
85.09622441564822
 20
281.5312984987483
 30
0.0
 10
85.09622441564822
 20
282.3597256234945
 30
0.0
 10
85.09622441564822
 20
282.3597256234945
 30
0.0
 10
85.09622441564822
 20
282.3597256234945
 30
0.0
 10
85.09622441564822
 20
282.3597256234945
 30
0.0
  0
ENDBLK
  5
5C
330
59
100
AcDbEntity
  8
0
100
AcDbBlockEnd
  0
BLOCK
  5
60
330
5E
100
AcDbEntity
  8
0
100
AcDbBlockBegin
  2
BLOCK_8
 70
     0
 10
0.0
 20
0.0
 30
0.0
  3
BLOCK_8
  1

  0
SPLINE
  5
62
330
5E
100
AcDbEntity
  8
0
 62
     7
100
AcDbSpline
210
0.0
220
0.0
230
1.0
 70
    11
 71
     3
 72
    20
 73
    16
 74
     0
 42
0.0000000001
 43
0.0000000001
 12
1.0
 22
0.0
 32
0.0
 13
1.0
 23
0.0
 33
0.0
 40
0.0
 40
0.0
 40
0.0
 40
0.0
 40
1.0
 40
1.0
 40
1.0
 40
2.0
 40
2.0
 40
2.0
 40
3.0
 40
3.0
 40
3.0
 40
4.0
 40
4.0
 40
4.0
 40
5.0
 40
5.0
 40
5.0
 40
5.0
 10
142.2676594156488
 20
107.4597186234944
 30
0.0
 10
142.2676594156488
 20
108.2881457482405
 30
0.0
 10
142.9392322909024
 20
108.9597186234948
 30
0.0
 10
143.7676594156485
 20
108.9597186234948
 30
0.0
 10
144.5960865403952
 20
108.9597186234948
 30
0.0
 10
145.2676594156489
 20
108.2881457482405
 30
0.0
 10
145.2676594156489
 20
107.4597186234944
 30
0.0
 10
145.2676594156489
 20
106.6312914987483
 30
0.0
 10
144.5960865403952
 20
105.9597186234947
 30
0.0
 10
143.7676594156485
 20
105.9597186234947
 30
0.0
 10
142.9392322909024
 20
105.9597186234947
 30
0.0
 10
142.2676594156488
 20
106.6312914987483
 30
0.0
 10
142.2676594156488
 20
107.4597186234944
 30
0.0
 10
142.2676594156488
 20
107.4597186234944
 30
0.0
 10
142.2676594156488
 20
107.4597186234944
 30
0.0
 10
142.2676594156488
 20
107.4597186234944
 30
0.0
  0
ENDBLK
  5
61
330
5E
100
AcDbEntity
  8
0
100
AcDbBlockEnd
  0
BLOCK
  5
65
330
63
100
AcDbEntity
  8
0
100
AcDbBlockBegin
  2
BLOCK_9
 70
     0
 10
0.0
 20
0.0
 30
0.0
  3
BLOCK_9
  1

  0
SPLINE
  5
67
330
63
100
AcDbEntity
  8
0
 62
     7
100
AcDbSpline
210
0.0
220
0.0
230
1.0
 70
    11
 71
     3
 72
    20
 73
    16
 74
     0
 42
0.0000000001
 43
0.0000000001
 12
1.0
 22
0.0
 32
0.0
 13
1.0
 23
0.0
 33
0.0
 40
0.0
 40
0.0
 40
0.0
 40
0.0
 40
1.0
 40
1.0
 40
1.0
 40
2.0
 40
2.0
 40
2.0
 40
3.0
 40
3.0
 40
3.0
 40
4.0
 40
4.0
 40
4.0
 40
5.0
 40
5.0
 40
5.0
 40
5.0
 10
85.09622441564886
 20
107.4597186234944
 30
0.0
 10
85.09622441564886
 20
108.2881457482405
 30
0.0
 10
85.76779729090248
 20
108.9597186234948
 30
0.0
 10
86.59622441564859
 20
108.9597186234948
 30
0.0
 10
87.42465154039535
 20
108.9597186234948
 30
0.0
 10
88.09622441564898
 20
108.2881457482405
 30
0.0
 10
88.09622441564898
 20
107.4597186234944
 30
0.0
 10
88.09622441564898
 20
106.6312914987483
 30
0.0
 10
87.42465154039535
 20
105.9597186234947
 30
0.0
 10
86.59622441564859
 20
105.9597186234947
 30
0.0
 10
85.76779729090248
 20
105.9597186234947
 30
0.0
 10
85.09622441564886
 20
106.6312914987483
 30
0.0
 10
85.09622441564886
 20
107.4597186234944
 30
0.0
 10
85.09622441564886
 20
107.4597186234944
 30
0.0
 10
85.09622441564886
 20
107.4597186234944
 30
0.0
 10
85.09622441564886
 20
107.4597186234944
 30
0.0
  0
ENDBLK
  5
66
330
63
100
AcDbEntity
  8
0
100
AcDbBlockEnd
  0
BLOCK
  5
6A
330
68
100
AcDbEntity
  8
0
100
AcDbBlockBegin
  2
BLOCK_10
 70
     0
 10
0.0
 20
0.0
 30
0.0
  3
BLOCK_10
  1

  0
SPLINE
  5
6C
330
68
100
AcDbEntity
  8
0
 62
     7
100
AcDbSpline
210
0.0
220
0.0
230
1.0
 70
    11
 71
     3
 72
    20
 73
    16
 74
     0
 42
0.0000000001
 43
0.0000000001
 12
1.0
 22
0.0
 32
0.0
 13
1.0
 23
0.0
 33
0.0
 40
0.0
 40
0.0
 40
0.0
 40
0.0
 40
1.0
 40
1.0
 40
1.0
 40
2.0
 40
2.0
 40
2.0
 40
3.0
 40
3.0
 40
3.0
 40
4.0
 40
4.0
 40
4.0
 40
5.0
 40
5.0
 40
5.0
 40
5.0
 10
68.18432610083626
 20
107.4597186234944
 30
0.0
 10
68.18432610083626
 20
108.2881457482405
 30
0.0
 10
68.85589897608988
 20
108.9597186234948
 30
0.0
 10
69.68432610083599
 20
108.9597186234948
 30
0.0
 10
70.51275322558274
 20
108.9597186234948
 30
0.0
 10
71.18432610083636
 20
108.2881457482405
 30
0.0
 10
71.18432610083636
 20
107.4597186234944
 30
0.0
 10
71.18432610083636
 20
106.6312914987483
 30
0.0
 10
70.51275322558274
 20
105.9597186234947
 30
0.0
 10
69.68432610083599
 20
105.9597186234947
 30
0.0
 10
68.85589897608988
 20
105.9597186234947
 30
0.0
 10
68.18432610083626
 20
106.6312914987483
 30
0.0
 10
68.18432610083626
 20
107.4597186234944
 30
0.0
 10
68.18432610083626
 20
107.4597186234944
 30
0.0
 10
68.18432610083626
 20
107.4597186234944
 30
0.0
 10
68.18432610083626
 20
107.4597186234944
 30
0.0
  0
ENDBLK
  5
6B
330
68
100
AcDbEntity
  8
0
100
AcDbBlockEnd
  0
BLOCK
  5
6F
330
6D
100
AcDbEntity
  8
0
100
AcDbBlockBegin
  2
BLOCK_11
 70
     0
 10
0.0
 20
0.0
 30
0.0
  3
BLOCK_11
  1

  0
SPLINE
  5
71
330
6D
100
AcDbEntity
  8
0
 62
     7
100
AcDbSpline
210
0.0
220
0.0
230
1.0
 70
    11
 71
     3
 72
    20
 73
    16
 74
     0
 42
0.0000000001
 43
0.0000000001
 12
1.0
 22
0.0
 32
0.0
 13
1.0
 23
0.0
 33
0.0
 40
0.0
 40
0.0
 40
0.0
 40
0.0
 40
1.0
 40
1.0
 40
1.0
 40
2.0
 40
2.0
 40
2.0
 40
3.0
 40
3.0
 40
3.0
 40
4.0
 40
4.0
 40
4.0
 40
5.0
 40
5.0
 40
5.0
 40
5.0
 10
68.18432610083626
 20
282.3597256234945
 30
0.0
 10
68.18432610083626
 20
283.1881527482408
 30
0.0
 10
68.85589897608988
 20
283.8597256234945
 30
0.0
 10
69.68432610083599
 20
283.8597256234945
 30
0.0
 10
70.51275322558274
 20
283.8597256234945
 30
0.0
 10
71.18432610083636
 20
283.1881527482408
 30
0.0
 10
71.18432610083636
 20
282.3597256234945
 30
0.0
 10
71.18432610083636
 20
281.5312984987483
 30
0.0
 10
70.51275322558274
 20
280.8597256234947
 30
0.0
 10
69.68432610083599
 20
280.8597256234947
 30
0.0
 10
68.85589897608988
 20
280.8597256234947
 30
0.0
 10
68.18432610083626
 20
281.5312984987483
 30
0.0
 10
68.18432610083626
 20
282.3597256234945
 30
0.0
 10
68.18432610083626
 20
282.3597256234945
 30
0.0
 10
68.18432610083626
 20
282.3597256234945
 30
0.0
 10
68.18432610083626
 20
282.3597256234945
 30
0.0
  0
ENDBLK
  5
70
330
6D
100
AcDbEntity
  8
0
100
AcDbBlockEnd
  0
BLOCK
  5
74
330
72
100
AcDbEntity
  8
0
100
AcDbBlockBegin
  2
BLOCK_12
 70
     0
 10
0.0
 20
0.0
 30
0.0
  3
BLOCK_12
  1

  0
SPLINE
  5
76
330
72
100
AcDbEntity
  8
0
 62
     7
100
AcDbSpline
210
0.0
220
0.0
230
1.0
 70
    11
 71
     3
 72
    20
 73
    16
 74
     0
 42
0.0000000001
 43
0.0000000001
 12
1.0
 22
0.0
 32
0.0
 13
1.0
 23
0.0
 33
0.0
 40
0.0
 40
0.0
 40
0.0
 40
0.0
 40
1.0
 40
1.0
 40
1.0
 40
2.0
 40
2.0
 40
2.0
 40
3.0
 40
3.0
 40
3.0
 40
4.0
 40
4.0
 40
4.0
 40
5.0
 40
5.0
 40
5.0
 40
5.0
 10
11.01289110083572
 20
282.3597256234945
 30
0.0
 10
11.01289110083572
 20
283.1881527482408
 30
0.0
 10
11.68446397608934
 20
283.8597256234945
 30
0.0
 10
12.51289110083545
 20
283.8597256234945
 30
0.0
 10
13.3413182255822
 20
283.8597256234945
 30
0.0
 10
14.01289110083582
 20
283.1881527482408
 30
0.0
 10
14.01289110083582
 20
282.3597256234945
 30
0.0
 10
14.01289110083582
 20
281.5312984987483
 30
0.0
 10
13.3413182255822
 20
280.8597256234947
 30
0.0
 10
12.51289110083545
 20
280.8597256234947
 30
0.0
 10
11.68446397608934
 20
280.8597256234947
 30
0.0
 10
11.01289110083572
 20
281.5312984987483
 30
0.0
 10
11.01289110083572
 20
282.3597256234945
 30
0.0
 10
11.01289110083572
 20
282.3597256234945
 30
0.0
 10
11.01289110083572
 20
282.3597256234945
 30
0.0
 10
11.01289110083572
 20
282.3597256234945
 30
0.0
  0
ENDBLK
  5
75
330
72
100
AcDbEntity
  8
0
100
AcDbBlockEnd
  0
BLOCK
  5
79
330
77
100
AcDbEntity
  8
0
100
AcDbBlockBegin
  2
BLOCK_13
 70
     0
 10
0.0
 20
0.0
 30
0.0
  3
BLOCK_13
  1

  0
SPLINE
  5
7B
330
77
100
AcDbEntity
  8
0
 62
     7
100
AcDbSpline
210
0.0
220
0.0
230
1.0
 70
    11
 71
     3
 72
    20
 73
    16
 74
     0
 42
0.0000000001
 43
0.0000000001
 12
1.0
 22
0.0
 32
0.0
 13
1.0
 23
0.0
 33
0.0
 40
0.0
 40
0.0
 40
0.0
 40
0.0
 40
1.0
 40
1.0
 40
1.0
 40
2.0
 40
2.0
 40
2.0
 40
3.0
 40
3.0
 40
3.0
 40
4.0
 40
4.0
 40
4.0
 40
5.0
 40
5.0
 40
5.0
 40
5.0
 10
11.01289110083636
 20
107.4597186234944
 30
0.0
 10
11.01289110083636
 20
108.2881457482405
 30
0.0
 10
11.68446397608998
 20
108.9597186234948
 30
0.0
 10
12.51289110083609
 20
108.9597186234948
 30
0.0
 10
13.34131822558285
 20
108.9597186234948
 30
0.0
 10
14.01289110083647
 20
108.2881457482405
 30
0.0
 10
14.01289110083647
 20
107.4597186234944
 30
0.0
 10
14.01289110083647
 20
106.6312914987483
 30
0.0
 10
13.34131822558285
 20
105.9597186234947
 30
0.0
 10
12.51289110083609
 20
105.9597186234947
 30
0.0
 10
11.68446397608998
 20
105.9597186234947
 30
0.0
 10
11.01289110083636
 20
106.6312914987483
 30
0.0
 10
11.01289110083636
 20
107.4597186234944
 30
0.0
 10
11.01289110083636
 20
107.4597186234944
 30
0.0
 10
11.01289110083636
 20
107.4597186234944
 30
0.0
 10
11.01289110083636
 20
107.4597186234944
 30
0.0
  0
ENDBLK
  5
7A
330
77
100
AcDbEntity
  8
0
100
AcDbBlockEnd
  0
BLOCK
  5
7E
330
7C
100
AcDbEntity
  8
0
100
AcDbBlockBegin
  2
BLOCK_14
 70
     0
 10
0.0
 20
0.0
 30
0.0
  3
BLOCK_14
  1

  0
POLYLINE
  5
80
330
7C
100
AcDbEntity
  8
0
 62
     7
100
AcDb2dPolyline
 66
     1
 10
0.0
 20
0.0
 30
0.0
  0
VERTEX
  5
81
330
80
100
AcDbEntity
  8
0
 62
     7
100
AcDbVertex
100
AcDb2dVertex
 10
6.598601100836445
 20
286.3597256234949
 30
0.0
  0
VERTEX
  5
82
330
80
100
AcDbEntity
  8
0
 62
     7
100
AcDbVertex
100
AcDb2dVertex
 10
6.638651100836658
 20
286.7628056234948
 30
0.0
  0
VERTEX
  5
83
330
80
100
AcDbEntity
  8
0
 62
     7
100
AcDbVertex
100
AcDb2dVertex
 10
6.7535211008363
 20
287.1382156234948
 30
0.0
  0
VERTEX
  5
84
330
80
100
AcDbEntity
  8
0
 62
     7
100
AcDbVertex
100
AcDb2dVertex
 10
6.935291100836121
 20
287.4779356234947
 30
0.0
  0
VERTEX
  5
85
330
80
100
AcDbEntity
  8
0
 62
     7
100
AcDbVertex
100
AcDb2dVertex
 10
7.176021100836708
 20
287.7739456234948
 30
0.0
  0
VERTEX
  5
86
330
80
100
AcDbEntity
  8
0
 62
     7
100
AcDbVertex
100
AcDb2dVertex
 10
7.467791100836886
 20
288.018155623495
 30
0.0
  0
VERTEX
  5
87
330
80
100
AcDbEntity
  8
0
 62
     7
100
AcDbVertex
100
AcDb2dVertex
 10
7.802661100836601
 20
288.2025656234949
 30
0.0
  0
VERTEX
  5
88
330
80
100
AcDbEntity
  8
0
 62
     7
100
AcDbVertex
100
AcDb2dVertex
 10
8.17272110083636
 20
288.3190956234949
 30
0.0
  0
VERTEX
  5
89
330
80
100
AcDbEntity
  8
0
 62
     7
100
AcDbVertex
100
AcDb2dVertex
 10
8.570031100836756
 20
288.359725623495
 30
0.0
  0
VERTEX
  5
8A
330
80
100
AcDbEntity
  8
0
 62
     7
100
AcDbVertex
100
AcDb2dVertex
 10
73.62719110083617
 20
288.359725623495
 30
0.0
  0
VERTEX
  5
8B
330
80
100
AcDbEntity
  8
0
 62
     7
100
AcDbVertex
100
AcDb2dVertex
 10
74.02450110083656
 20
288.3190956234949
 30
0.0
  0
VERTEX
  5
8C
330
80
100
AcDbEntity
  8
0
 62
     7
100
AcDbVertex
100
AcDb2dVertex
 10
74.39454110083616
 20
288.2025656234949
 30
0.0
  0
VERTEX
  5
8D
330
80
100
AcDbEntity
  8
0
 62
     7
100
AcDbVertex
100
AcDb2dVertex
 10
74.72943110083668
 20
288.018155623495
 30
0.0
  0
VERTEX
  5
8E
330
80
100
AcDbEntity
  8
0
 62
     7
100
AcDbVertex
100
AcDb2dVertex
 10
75.02119110083645
 20
287.7739456234948
 30
0.0
  0
VERTEX
  5
8F
330
80
100
AcDbEntity
  8
0
 62
     7
100
AcDbVertex
100
AcDb2dVertex
 10
75.2619311008368
 20
287.4779356234947
 30
0.0
  0
VERTEX
  5
90
330
80
100
AcDbEntity
  8
0
 62
     7
100
AcDbVertex
100
AcDb2dVertex
 10
75.44369110083622
 20
287.1382156234948
 30
0.0
  0
VERTEX
  5
91
330
80
100
AcDbEntity
  8
0
 62
     7
100
AcDbVertex
100
AcDb2dVertex
 10
75.55858110083666
 20
286.7628056234948
 30
0.0
  0
VERTEX
  5
92
330
80
100
AcDbEntity
  8
0
 62
     7
100
AcDbVertex
100
AcDb2dVertex
 10
75.59862110083648
 20
286.3597256234949
 30
0.0
  0
VERTEX
  5
93
330
80
100
AcDbEntity
  8
0
 62
     7
100
AcDbVertex
100
AcDb2dVertex
 10
75.59862110083648
 20
103.4597187234947
 30
0.0
  0
VERTEX
  5
94
330
80
100
AcDbEntity
  8
0
 62
     7
100
AcDbVertex
100
AcDb2dVertex
 10
75.55858110083666
 20
103.0566492234949
 30
0.0
  0
VERTEX
  5
95
330
80
100
AcDbEntity
  8
0
 62
     7
100
AcDbVertex
100
AcDb2dVertex
 10
75.44369110083622
 20
102.6812286234946
 30
0.0
  0
VERTEX
  5
96
330
80
100
AcDbEntity
  8
0
 62
     7
100
AcDbVertex
100
AcDb2dVertex
 10
75.26193110083615
 20
102.3415002234949
 30
0.0
  0
VERTEX
  5
97
330
80
100
AcDbEntity
  8
0
 62
     7
100
AcDbVertex
100
AcDb2dVertex
 10
75.02119110083645
 20
102.0455055234945
 30
0.0
  0
VERTEX
  5
98
330
80
100
AcDbEntity
  8
0
 62
     7
100
AcDbVertex
100
AcDb2dVertex
 10
74.72943110083668
 20
101.8012876234948
 30
0.0
  0
VERTEX
  5
99
330
80
100
AcDbEntity
  8
0
 62
     7
100
AcDbVertex
100
AcDb2dVertex
 10
74.39454110083616
 20
101.6168889234947
 30
0.0
  0
VERTEX
  5
9A
330
80
100
AcDbEntity
  8
0
 62
     7
100
AcDbVertex
100
AcDb2dVertex
 10
74.02450110083656
 20
101.5003519234948
 30
0.0
  0
VERTEX
  5
9B
330
80
100
AcDbEntity
  8
0
 62
     7
100
AcDbVertex
100
AcDb2dVertex
 10
73.62719110083617
 20
101.4597187234946
 30
0.0
  0
VERTEX
  5
9C
330
80
100
AcDbEntity
  8
0
 62
     7
100
AcDbVertex
100
AcDb2dVertex
 10
8.570031100836756
 20
101.4597187234946
 30
0.0
  0
VERTEX
  5
9D
330
80
100
AcDbEntity
  8
0
 62
     7
100
AcDbVertex
100
AcDb2dVertex
 10
8.17272110083636
 20
101.5003519234948
 30
0.0
  0
VERTEX
  5
9E
330
80
100
AcDbEntity
  8
0
 62
     7
100
AcDbVertex
100
AcDb2dVertex
 10
7.802661100836601
 20
101.6168889234947
 30
0.0
  0
VERTEX
  5
9F
330
80
100
AcDbEntity
  8
0
 62
     7
100
AcDbVertex
100
AcDb2dVertex
 10
7.467791100836886
 20
101.8012876234948
 30
0.0
  0
VERTEX
  5
A0
330
80
100
AcDbEntity
  8
0
 62
     7
100
AcDbVertex
100
AcDb2dVertex
 10
7.176021100836708
 20
102.0455055234945
 30
0.0
  0
VERTEX
  5
A1
330
80
100
AcDbEntity
  8
0
 62
     7
100
AcDbVertex
100
AcDb2dVertex
 10
6.935291100836121
 20
102.3415002234949
 30
0.0
  0
VERTEX
  5
A2
330
80
100
AcDbEntity
  8
0
 62
     7
100
AcDbVertex
100
AcDb2dVertex
 10
6.7535211008363
 20
102.6812286234946
 30
0.0
  0
VERTEX
  5
A3
330
80
100
AcDbEntity
  8
0
 62
     7
100
AcDbVertex
100
AcDb2dVertex
 10
6.638651100836658
 20
103.0566492234949
 30
0.0
  0
VERTEX
  5
A4
330
80
100
AcDbEntity
  8
0
 62
     7
100
AcDbVertex
100
AcDb2dVertex
 10
6.598601100836445
 20
103.4597187234947
 30
0.0
  0
VERTEX
  5
A5
330
80
100
AcDbEntity
  8
0
 62
     7
100
AcDbVertex
100
AcDb2dVertex
 10
6.598601100836445
 20
286.3597256234949
 30
0.0
  0
SEQEND
  5
A6
330
80
100
AcDbEntity
  8
0
 62
     7
  0
ENDBLK
  5
7F
330
7C
100
AcDbEntity
  8
0
100
AcDbBlockEnd
  0
BLOCK
  5
A9
330
A7
100
AcDbEntity
  8
0
100
AcDbBlockBegin
  2
BLOCK_15
 70
     0
 10
0.0
 20
0.0
 30
0.0
  3
BLOCK_15
  1

  0
SPLINE
  5
AB
330
A7
100
AcDbEntity
  8
0
 62
     7
100
AcDbSpline
210
0.0
220
0.0
230
1.0
 70
    11
 71
     3
 72
    20
 73
    16
 74
     0
 42
0.0000000001
 43
0.0000000001
 12
1.0
 22
0.0
 32
0.0
 13
1.0
 23
0.0
 33
0.0
 40
0.0
 40
0.0
 40
0.0
 40
0.0
 40
1.0
 40
1.0
 40
1.0
 40
2.0
 40
2.0
 40
2.0
 40
3.0
 40
3.0
 40
3.0
 40
4.0
 40
4.0
 40
4.0
 40
5.0
 40
5.0
 40
5.0
 40
5.0
 10
27.59861610083651
 20
209.3597206234949
 30
0.0
 10
27.59861610083651
 20
216.8155647462105
 30
0.0
 10
33.64277197812101
 20
222.859720623495
 30
0.0
 10
41.09861610083666
 20
222.859720623495
 30
0.0
 10
48.55446022355231
 20
222.859720623495
 30
0.0
 10
54.59861610083681
 20
216.8155647462105
 30
0.0
 10
54.59861610083681
 20
209.3597206234949
 30
0.0
 10
54.59861610083681
 20
201.9038765007792
 30
0.0
 10
48.55446022355231
 20
195.8597206234947
 30
0.0
 10
41.09861610083666
 20
195.8597206234947
 30
0.0
 10
33.64277197812101
 20
195.8597206234947
 30
0.0
 10
27.59861610083651
 20
201.9038765007792
 30
0.0
 10
27.59861610083651
 20
209.3597206234949
 30
0.0
 10
27.59861610083651
 20
209.3597206234949
 30
0.0
 10
27.59861610083651
 20
209.3597206234949
 30
0.0
 10
27.59861610083651
 20
209.3597206234949
 30
0.0
  0
ENDBLK
  5
AA
330
A7
100
AcDbEntity
  8
0
100
AcDbBlockEnd
  0
BLOCK
  5
AE
330
AC
100
AcDbEntity
  8
0
100
AcDbBlockBegin
  2
BLOCK_16
 70
     0
 10
0.0
 20
0.0
 30
0.0
  3
BLOCK_16
  1

  0
POLYLINE
  5
B0
330
AC
100
AcDbEntity
  8
0
 62
     7
100
AcDb2dPolyline
 66
     1
 10
0.0
 20
0.0
 30
0.0
  0
VERTEX
  5
B1
330
B0
100
AcDbEntity
  8
0
 62
     7
100
AcDbVertex
100
AcDb2dVertex
 10
80.68193441564895
 20
286.3597256234949
 30
0.0
  0
VERTEX
  5
B2
330
B0
100
AcDbEntity
  8
0
 62
     7
100
AcDbVertex
100
AcDb2dVertex
 10
80.72198441564916
 20
286.7628056234948
 30
0.0
  0
VERTEX
  5
B3
330
B0
100
AcDbEntity
  8
0
 62
     7
100
AcDbVertex
100
AcDb2dVertex
 10
80.8368544156488
 20
287.1382156234948
 30
0.0
  0
VERTEX
  5
B4
330
B0
100
AcDbEntity
  8
0
 62
     7
100
AcDbVertex
100
AcDb2dVertex
 10
81.01862441564863
 20
287.4779356234947
 30
0.0
  0
VERTEX
  5
B5
330
B0
100
AcDbEntity
  8
0
 62
     7
100
AcDbVertex
100
AcDb2dVertex
 10
81.25935441564921
 20
287.7739456234948
 30
0.0
  0
VERTEX
  5
B6
330
B0
100
AcDbEntity
  8
0
 62
     7
100
AcDbVertex
100
AcDb2dVertex
 10
81.55112441564938
 20
288.018155623495
 30
0.0
  0
VERTEX
  5
B7
330
B0
100
AcDbEntity
  8
0
 62
     7
100
AcDbVertex
100
AcDb2dVertex
 10
81.88599441564911
 20
288.2025656234949
 30
0.0
  0
VERTEX
  5
B8
330
B0
100
AcDbEntity
  8
0
 62
     7
100
AcDbVertex
100
AcDb2dVertex
 10
82.25605441564886
 20
288.3190956234949
 30
0.0
  0
VERTEX
  5
B9
330
B0
100
AcDbEntity
  8
0
 62
     7
100
AcDbVertex
100
AcDb2dVertex
 10
82.65336441564926
 20
288.359725623495
 30
0.0
  0
VERTEX
  5
BA
330
B0
100
AcDbEntity
  8
0
 62
     7
100
AcDbVertex
100
AcDb2dVertex
 10
147.7105244156487
 20
288.359725623495
 30
0.0
  0
VERTEX
  5
BB
330
B0
100
AcDbEntity
  8
0
 62
     7
100
AcDbVertex
100
AcDb2dVertex
 10
148.1078344156491
 20
288.3190956234949
 30
0.0
  0
VERTEX
  5
BC
330
B0
100
AcDbEntity
  8
0
 62
     7
100
AcDbVertex
100
AcDb2dVertex
 10
148.4778744156487
 20
288.2025656234949
 30
0.0
  0
VERTEX
  5
BD
330
B0
100
AcDbEntity
  8
0
 62
     7
100
AcDbVertex
100
AcDb2dVertex
 10
148.8127644156492
 20
288.018155623495
 30
0.0
  0
VERTEX
  5
BE
330
B0
100
AcDbEntity
  8
0
 62
     7
100
AcDbVertex
100
AcDb2dVertex
 10
149.104524415649
 20
287.7739456234948
 30
0.0
  0
VERTEX
  5
BF
330
B0
100
AcDbEntity
  8
0
 62
     7
100
AcDbVertex
100
AcDb2dVertex
 10
149.3452644156493
 20
287.4779356234947
 30
0.0
  0
VERTEX
  5
C0
330
B0
100
AcDbEntity
  8
0
 62
     7
100
AcDbVertex
100
AcDb2dVertex
 10
149.5270244156487
 20
287.1382156234948
 30
0.0
  0
VERTEX
  5
C1
330
B0
100
AcDbEntity
  8
0
 62
     7
100
AcDbVertex
100
AcDb2dVertex
 10
149.6419144156492
 20
286.7628056234948
 30
0.0
  0
VERTEX
  5
C2
330
B0
100
AcDbEntity
  8
0
 62
     7
100
AcDbVertex
100
AcDb2dVertex
 10
149.681954415649
 20
286.3597256234949
 30
0.0
  0
VERTEX
  5
C3
330
B0
100
AcDbEntity
  8
0
 62
     7
100
AcDbVertex
100
AcDb2dVertex
 10
149.681954415649
 20
103.4597187234947
 30
0.0
  0
VERTEX
  5
C4
330
B0
100
AcDbEntity
  8
0
 62
     7
100
AcDbVertex
100
AcDb2dVertex
 10
149.6419144156492
 20
103.0566492234949
 30
0.0
  0
VERTEX
  5
C5
330
B0
100
AcDbEntity
  8
0
 62
     7
100
AcDbVertex
100
AcDb2dVertex
 10
149.5270244156487
 20
102.6812286234946
 30
0.0
  0
VERTEX
  5
C6
330
B0
100
AcDbEntity
  8
0
 62
     7
100
AcDbVertex
100
AcDb2dVertex
 10
149.3452644156487
 20
102.3415002234949
 30
0.0
  0
VERTEX
  5
C7
330
B0
100
AcDbEntity
  8
0
 62
     7
100
AcDbVertex
100
AcDb2dVertex
 10
149.104524415649
 20
102.0455055234945
 30
0.0
  0
VERTEX
  5
C8
330
B0
100
AcDbEntity
  8
0
 62
     7
100
AcDbVertex
100
AcDb2dVertex
 10
148.8127644156492
 20
101.8012876234948
 30
0.0
  0
VERTEX
  5
C9
330
B0
100
AcDbEntity
  8
0
 62
     7
100
AcDbVertex
100
AcDb2dVertex
 10
148.4778744156487
 20
101.6168889234947
 30
0.0
  0
VERTEX
  5
CA
330
B0
100
AcDbEntity
  8
0
 62
     7
100
AcDbVertex
100
AcDb2dVertex
 10
148.1078344156491
 20
101.5003519234948
 30
0.0
  0
VERTEX
  5
CB
330
B0
100
AcDbEntity
  8
0
 62
     7
100
AcDbVertex
100
AcDb2dVertex
 10
147.7105244156487
 20
101.4597187234946
 30
0.0
  0
VERTEX
  5
CC
330
B0
100
AcDbEntity
  8
0
 62
     7
100
AcDbVertex
100
AcDb2dVertex
 10
82.65336441564926
 20
101.4597187234946
 30
0.0
  0
VERTEX
  5
CD
330
B0
100
AcDbEntity
  8
0
 62
     7
100
AcDbVertex
100
AcDb2dVertex
 10
82.25605441564886
 20
101.5003519234948
 30
0.0
  0
VERTEX
  5
CE
330
B0
100
AcDbEntity
  8
0
 62
     7
100
AcDbVertex
100
AcDb2dVertex
 10
81.88599441564911
 20
101.6168889234947
 30
0.0
  0
VERTEX
  5
CF
330
B0
100
AcDbEntity
  8
0
 62
     7
100
AcDbVertex
100
AcDb2dVertex
 10
81.55112441564938
 20
101.8012876234948
 30
0.0
  0
VERTEX
  5
D0
330
B0
100
AcDbEntity
  8
0
 62
     7
100
AcDbVertex
100
AcDb2dVertex
 10
81.25935441564921
 20
102.0455055234945
 30
0.0
  0
VERTEX
  5
D1
330
B0
100
AcDbEntity
  8
0
 62
     7
100
AcDbVertex
100
AcDb2dVertex
 10
81.01862441564863
 20
102.3415002234949
 30
0.0
  0
VERTEX
  5
D2
330
B0
100
AcDbEntity
  8
0
 62
     7
100
AcDbVertex
100
AcDb2dVertex
 10
80.8368544156488
 20
102.6812286234946
 30
0.0
  0
VERTEX
  5
D3
330
B0
100
AcDbEntity
  8
0
 62
     7
100
AcDbVertex
100
AcDb2dVertex
 10
80.72198441564916
 20
103.0566492234949
 30
0.0
  0
VERTEX
  5
D4
330
B0
100
AcDbEntity
  8
0
 62
     7
100
AcDbVertex
100
AcDb2dVertex
 10
80.68193441564895
 20
103.4597187234947
 30
0.0
  0
VERTEX
  5
D5
330
B0
100
AcDbEntity
  8
0
 62
     7
100
AcDbVertex
100
AcDb2dVertex
 10
80.68193441564895
 20
286.3597256234949
 30
0.0
  0
SEQEND
  5
D6
330
B0
100
AcDbEntity
  8
0
 62
     7
  0
ENDBLK
  5
AF
330
AC
100
AcDbEntity
  8
0
100
AcDbBlockEnd
  0
BLOCK
  5
D9
330
D7
100
AcDbEntity
  8
0
100
AcDbBlockBegin
  2
BLOCK_17
 70
     0
 10
0.0
 20
0.0
 30
0.0
  3
BLOCK_17
  1

  0
SPLINE
  5
DB
330
D7
100
AcDbEntity
  8
0
 62
     7
100
AcDbSpline
210
0.0
220
0.0
230
1.0
 70
    11
 71
     3
 72
    20
 73
    16
 74
     0
 42
0.0000000001
 43
0.0000000001
 12
1.0
 22
0.0
 32
0.0
 13
1.0
 23
0.0
 33
0.0
 40
0.0
 40
0.0
 40
0.0
 40
0.0
 40
1.0
 40
1.0
 40
1.0
 40
2.0
 40
2.0
 40
2.0
 40
3.0
 40
3.0
 40
3.0
 40
4.0
 40
4.0
 40
4.0
 40
5.0
 40
5.0
 40
5.0
 40
5.0
 10
100.9319494156491
 20
209.3597206234949
 30
0.0
 10
100.9319494156491
 20
217.2297783085836
 30
0.0
 10
107.3118917305608
 20
223.6097206234949
 30
0.0
 10
115.1819494156492
 20
223.6097206234949
 30
0.0
 10
123.0520071007382
 20
223.6097206234949
 30
0.0
 10
129.4319494156492
 20
217.2297783085836
 30
0.0
 10
129.4319494156492
 20
209.3597206234949
 30
0.0
 10
129.4319494156492
 20
201.4896629384062
 30
0.0
 10
123.0520071007382
 20
195.1097206234948
 30
0.0
 10
115.1819494156492
 20
195.1097206234948
 30
0.0
 10
107.3118917305608
 20
195.1097206234948
 30
0.0
 10
100.9319494156491
 20
201.4896629384062
 30
0.0
 10
100.9319494156491
 20
209.3597206234949
 30
0.0
 10
100.9319494156491
 20
209.3597206234949
 30
0.0
 10
100.9319494156491
 20
209.3597206234949
 30
0.0
 10
100.9319494156491
 20
209.3597206234949
 30
0.0
  0
ENDBLK
  5
DA
330
D7
100
AcDbEntity
  8
0
100
AcDbBlockEnd
  0
BLOCK
  5
DE
330
DC
100
AcDbEntity
  8
0
100
AcDbBlockBegin
  2
BLOCK_18
 70
     0
 10
0.0
 20
0.0
 30
0.0
  3
BLOCK_18
  1

  0
POLYLINE
  5
E0
330
DC
100
AcDbEntity
  8
0
 62
     7
100
AcDb2dPolyline
 66
     1
 10
0.0
 20
0.0
 30
0.0
  0
VERTEX
  5
E1
330
E0
100
AcDbEntity
  8
0
 62
     7
100
AcDbVertex
100
AcDb2dVertex
 10
154.7652677304615
 20
286.3597256234949
 30
0.0
  0
VERTEX
  5
E2
330
E0
100
AcDbEntity
  8
0
 62
     7
100
AcDbVertex
100
AcDb2dVertex
 10
154.8053177304617
 20
286.7628056234948
 30
0.0
  0
VERTEX
  5
E3
330
E0
100
AcDbEntity
  8
0
 62
     7
100
AcDbVertex
100
AcDb2dVertex
 10
154.9201877304613
 20
287.1382156234948
 30
0.0
  0
VERTEX
  5
E4
330
E0
100
AcDbEntity
  8
0
 62
     7
100
AcDbVertex
100
AcDb2dVertex
 10
155.1019577304611
 20
287.4779356234947
 30
0.0
  0
VERTEX
  5
E5
330
E0
100
AcDbEntity
  8
0
 62
     7
100
AcDbVertex
100
AcDb2dVertex
 10
155.3426877304617
 20
287.7739456234948
 30
0.0
  0
VERTEX
  5
E6
330
E0
100
AcDbEntity
  8
0
 62
     7
100
AcDbVertex
100
AcDb2dVertex
 10
155.6344577304619
 20
288.018155623495
 30
0.0
  0
VERTEX
  5
E7
330
E0
100
AcDbEntity
  8
0
 62
     7
100
AcDbVertex
100
AcDb2dVertex
 10
155.9693277304616
 20
288.2025656234949
 30
0.0
  0
VERTEX
  5
E8
330
E0
100
AcDbEntity
  8
0
 62
     7
100
AcDbVertex
100
AcDb2dVertex
 10
156.3393877304614
 20
288.3190956234949
 30
0.0
  0
VERTEX
  5
E9
330
E0
100
AcDbEntity
  8
0
 62
     7
100
AcDbVertex
100
AcDb2dVertex
 10
156.7366977304618
 20
288.359725623495
 30
0.0
  0
VERTEX
  5
EA
330
E0
100
AcDbEntity
  8
0
 62
     7
100
AcDbVertex
100
AcDb2dVertex
 10
221.7938577304612
 20
288.359725623495
 30
0.0
  0
VERTEX
  5
EB
330
E0
100
AcDbEntity
  8
0
 62
     7
100
AcDbVertex
100
AcDb2dVertex
 10
222.1911677304616
 20
288.3190956234949
 30
0.0
  0
VERTEX
  5
EC
330
E0
100
AcDbEntity
  8
0
 62
     7
100
AcDbVertex
100
AcDb2dVertex
 10
222.5612077304612
 20
288.2025656234949
 30
0.0
  0
VERTEX
  5
ED
330
E0
100
AcDbEntity
  8
0
 62
     7
100
AcDbVertex
100
AcDb2dVertex
 10
222.8960977304617
 20
288.018155623495
 30
0.0
  0
VERTEX
  5
EE
330
E0
100
AcDbEntity
  8
0
 62
     7
100
AcDbVertex
100
AcDb2dVertex
 10
223.1878577304614
 20
287.7739456234948
 30
0.0
  0
VERTEX
  5
EF
330
E0
100
AcDbEntity
  8
0
 62
     7
100
AcDbVertex
100
AcDb2dVertex
 10
223.4285977304618
 20
287.4779356234947
 30
0.0
  0
VERTEX
  5
F0
330
E0
100
AcDbEntity
  8
0
 62
     7
100
AcDbVertex
100
AcDb2dVertex
 10
223.6103577304612
 20
287.1382156234948
 30
0.0
  0
VERTEX
  5
F1
330
E0
100
AcDbEntity
  8
0
 62
     7
100
AcDbVertex
100
AcDb2dVertex
 10
223.7252477304617
 20
286.7628056234948
 30
0.0
  0
VERTEX
  5
F2
330
E0
100
AcDbEntity
  8
0
 62
     7
100
AcDbVertex
100
AcDb2dVertex
 10
223.7652877304615
 20
286.3597256234949
 30
0.0
  0
VERTEX
  5
F3
330
E0
100
AcDbEntity
  8
0
 62
     7
100
AcDbVertex
100
AcDb2dVertex
 10
223.7652877304615
 20
103.4597187234947
 30
0.0
  0
VERTEX
  5
F4
330
E0
100
AcDbEntity
  8
0
 62
     7
100
AcDbVertex
100
AcDb2dVertex
 10
223.7252477304617
 20
103.0566492234949
 30
0.0
  0
VERTEX
  5
F5
330
E0
100
AcDbEntity
  8
0
 62
     7
100
AcDbVertex
100
AcDb2dVertex
 10
223.6103577304612
 20
102.6812286234946
 30
0.0
  0
VERTEX
  5
F6
330
E0
100
AcDbEntity
  8
0
 62
     7
100
AcDbVertex
100
AcDb2dVertex
 10
223.4285977304612
 20
102.3415002234949
 30
0.0
  0
VERTEX
  5
F7
330
E0
100
AcDbEntity
  8
0
 62
     7
100
AcDbVertex
100
AcDb2dVertex
 10
223.1878577304614
 20
102.0455055234945
 30
0.0
  0
VERTEX
  5
F8
330
E0
100
AcDbEntity
  8
0
 62
     7
100
AcDbVertex
100
AcDb2dVertex
 10
222.8960977304617
 20
101.8012876234948
 30
0.0
  0
VERTEX
  5
F9
330
E0
100
AcDbEntity
  8
0
 62
     7
100
AcDbVertex
100
AcDb2dVertex
 10
222.5612077304612
 20
101.6168889234947
 30
0.0
  0
VERTEX
  5
FA
330
E0
100
AcDbEntity
  8
0
 62
     7
100
AcDbVertex
100
AcDb2dVertex
 10
222.1911677304616
 20
101.5003519234948
 30
0.0
  0
VERTEX
  5
FB
330
E0
100
AcDbEntity
  8
0
 62
     7
100
AcDbVertex
100
AcDb2dVertex
 10
221.7938577304612
 20
101.4597187234946
 30
0.0
  0
VERTEX
  5
FC
330
E0
100
AcDbEntity
  8
0
 62
     7
100
AcDbVertex
100
AcDb2dVertex
 10
156.7366977304618
 20
101.4597187234946
 30
0.0
  0
VERTEX
  5
FD
330
E0
100
AcDbEntity
  8
0
 62
     7
100
AcDbVertex
100
AcDb2dVertex
 10
156.3393877304614
 20
101.5003519234948
 30
0.0
  0
VERTEX
  5
FE
330
E0
100
AcDbEntity
  8
0
 62
     7
100
AcDbVertex
100
AcDb2dVertex
 10
155.9693277304616
 20
101.6168889234947
 30
0.0
  0
VERTEX
  5
FF
330
E0
100
AcDbEntity
  8
0
 62
     7
100
AcDbVertex
100
AcDb2dVertex
 10
155.6344577304619
 20
101.8012876234948
 30
0.0
  0
VERTEX
  5
100
330
E0
100
AcDbEntity
  8
0
 62
     7
100
AcDbVertex
100
AcDb2dVertex
 10
155.3426877304617
 20
102.0455055234945
 30
0.0
  0
VERTEX
  5
101
330
E0
100
AcDbEntity
  8
0
 62
     7
100
AcDbVertex
100
AcDb2dVertex
 10
155.1019577304611
 20
102.3415002234949
 30
0.0
  0
VERTEX
  5
102
330
E0
100
AcDbEntity
  8
0
 62
     7
100
AcDbVertex
100
AcDb2dVertex
 10
154.9201877304613
 20
102.6812286234946
 30
0.0
  0
VERTEX
  5
103
330
E0
100
AcDbEntity
  8
0
 62
     7
100
AcDbVertex
100
AcDb2dVertex
 10
154.8053177304617
 20
103.0566492234949
 30
0.0
  0
VERTEX
  5
104
330
E0
100
AcDbEntity
  8
0
 62
     7
100
AcDbVertex
100
AcDb2dVertex
 10
154.7652677304615
 20
103.4597187234947
 30
0.0
  0
VERTEX
  5
105
330
E0
100
AcDbEntity
  8
0
 62
     7
100
AcDbVertex
100
AcDb2dVertex
 10
154.7652677304615
 20
286.3597256234949
 30
0.0
  0
SEQEND
  5
106
330
E0
100
AcDbEntity
  8
0
 62
     7
  0
ENDBLK
  5
DF
330
DC
100
AcDbEntity
  8
0
100
AcDbBlockEnd
  0
ENDSEC
  0
SECTION
  2
ENTITIES
  0
INSERT
  5
41
330
1F
100
AcDbEntity
  8
0
100
AcDbBlockReference
  2
BLOCK_2
 10
0.0
 20
0.0
 30
0.0
  0
INSERT
  5
46
330
1F
100
AcDbEntity
  8
0
100
AcDbBlockReference
  2
BLOCK_3
 10
0.0
 20
0.0
 30
0.0
  0
INSERT
  5
4B
330
1F
100
AcDbEntity
  8
0
100
AcDbBlockReference
  2
BLOCK_4
 10
0.0
 20
0.0
 30
0.0
  0
INSERT
  5
50
330
1F
100
AcDbEntity
  8
0
100
AcDbBlockReference
  2
BLOCK_5
 10
0.0
 20
0.0
 30
0.0
  0
INSERT
  5
55
330
1F
100
AcDbEntity
  8
0
100
AcDbBlockReference
  2
BLOCK_6
 10
0.0
 20
0.0
 30
0.0
  0
INSERT
  5
5A
330
1F
100
AcDbEntity
  8
0
100
AcDbBlockReference
  2
BLOCK_7
 10
0.0
 20
0.0
 30
0.0
  0
INSERT
  5
5F
330
1F
100
AcDbEntity
  8
0
100
AcDbBlockReference
  2
BLOCK_8
 10
0.0
 20
0.0
 30
0.0
  0
INSERT
  5
64
330
1F
100
AcDbEntity
  8
0
100
AcDbBlockReference
  2
BLOCK_9
 10
0.0
 20
0.0
 30
0.0
  0
INSERT
  5
69
330
1F
100
AcDbEntity
  8
0
100
AcDbBlockReference
  2
BLOCK_10
 10
0.0
 20
0.0
 30
0.0
  0
INSERT
  5
6E
330
1F
100
AcDbEntity
  8
0
100
AcDbBlockReference
  2
BLOCK_11
 10
0.0
 20
0.0
 30
0.0
  0
INSERT
  5
73
330
1F
100
AcDbEntity
  8
0
100
AcDbBlockReference
  2
BLOCK_12
 10
0.0
 20
0.0
 30
0.0
  0
INSERT
  5
78
330
1F
100
AcDbEntity
  8
0
100
AcDbBlockReference
  2
BLOCK_13
 10
0.0
 20
0.0
 30
0.0
  0
INSERT
  5
7D
330
1F
100
AcDbEntity
  8
0
100
AcDbBlockReference
  2
BLOCK_14
 10
0.0
 20
0.0
 30
0.0
  0
INSERT
  5
A8
330
1F
100
AcDbEntity
  8
0
100
AcDbBlockReference
  2
BLOCK_15
 10
0.0
 20
0.0
 30
0.0
  0
INSERT
  5
AD
330
1F
100
AcDbEntity
  8
0
100
AcDbBlockReference
  2
BLOCK_16
 10
0.0
 20
0.0
 30
0.0
  0
INSERT
  5
D8
330
1F
100
AcDbEntity
  8
0
100
AcDbBlockReference
  2
BLOCK_17
 10
0.0
 20
0.0
 30
0.0
  0
INSERT
  5
DD
330
1F
100
AcDbEntity
  8
0
100
AcDbBlockReference
  2
BLOCK_18
 10
0.0
 20
0.0
 30
0.0
  0
ENDSEC
  0
SECTION
  2
OBJECTS
  0
DICTIONARY
  5
C
330
0
100
AcDbDictionary
  3
ACAD_GROUP
350
D
  3
ACAD_LAYOUT
350
1A
  3
ACAD_MATERIAL
350
3B
  3
ACAD_MLEADERSTYLE
350
109
  3
ACAD_MLINESTYLE
350
17
  3
ACAD_PLOTSETTINGS
350
19
  3
ACAD_VISUALSTYLE
350
2A
  3
ACDBVARIABLEDICTIONARY
350
107
1001
ACAD
1000
TREAT_AS_HARD
1070
     0
  0
DICTIONARY
  5
D
102
{ACAD_REACTORS
330
C
102
}
330
C
100
AcDbDictionary
1001
ACAD
1000
TREAT_AS_HARD
1070
     0
  0
DICTIONARY
  5
1A
102
{ACAD_REACTORS
330
C
102
}
330
C
100
AcDbDictionary
1001
ACAD
1000
TREAT_AS_HARD
1070
     0
  0
DICTIONARY
  5
3B
102
{ACAD_REACTORS
330
C
102
}
330
C
100
AcDbDictionary
  3
BYBLOCK
350
3D
  3
BYLAYER
350
3C
  3
GLOBAL
350
3E
1001
ACAD
1000
TREAT_AS_HARD
1070
     0
  0
DICTIONARY
  5
109
102
{ACAD_REACTORS
330
C
102
}
330
C
100
AcDbDictionary
1001
ACAD
1000
TREAT_AS_HARD
1070
     0
  0
DICTIONARY
  5
17
102
{ACAD_REACTORS
330
C
102
}
330
C
100
AcDbDictionary
  3
STANDARD
350
18
1001
ACAD
1000
TREAT_AS_HARD
1070
     0
  0
DICTIONARY
  5
19
102
{ACAD_REACTORS
330
C
102
}
330
C
100
AcDbDictionary
1001
ACAD
1000
TREAT_AS_HARD
1070
     0
  0
DICTIONARY
  5
2A
102
{ACAD_REACTORS
330
C
102
}
330
C
100
AcDbDictionary
  3
2DWIREFRAME
350
2F
  3
3DWIREFRAME
350
30
  3
3D_HIDDEN
350
31
  3
BASIC
350
32
  3
BRIGHTEN
350
36
  3
COLORCHANGE
350
3A
  3
CONCEPTUAL
350
34
  3
DIM
350
35
  3
FACEPATTERN
350
39
  3
FLAT
350
2B
  3
FLATWITHEDGES
350
2C
  3
GOURAUD
350
2D
  3
GOURAUDWITHEDGES
350
2E
  3
LINEPATTERN
350
38
  3
REALISTIC
350
33
  3
THICKEN
350
37
1001
ACAD
1000
TREAT_AS_HARD
1070
     0
  0
DICTIONARY
  5
107
102
{ACAD_REACTORS
330
C
102
}
330
C
100
AcDbDictionary
  3
DIMASSOC
350
10A
  3
HIDETEXT
350
10B
1001
ACAD
1000
TREAT_AS_HARD
1070
     0
  0
MATERIAL
  5
3D
102
{ACAD_REACTORS
330
3B
102
}
102
{ACAD_XDICTIONARY
360
10E
102
}
330
3B
100
AcDbMaterial
  1
ByBlock
  0
MATERIAL
  5
3C
102
{ACAD_REACTORS
330
3B
102
}
102
{ACAD_XDICTIONARY
360
10C
102
}
330
3B
100
AcDbMaterial
  1
ByLayer
  0
MATERIAL
  5
3E
102
{ACAD_REACTORS
330
3B
102
}
102
{ACAD_XDICTIONARY
360
110
102
}
330
3B
100
AcDbMaterial
  1
Global
  0
MLINESTYLE
  5
18
102
{ACAD_REACTORS
330
17
102
}
330
17
100
AcDbMlineStyle
  2
Standard
 70
     0
  3

 62
   256
 51
90.0
 52
90.0
 71
     2
 49
0.5
 62
   256
  6
BYLAYER
 49
-0.5
 62
   256
  6
BYLAYER
  0
ACAD_PROXY_OBJECT
  5
2F
102
{ACAD_REACTORS
330
2A
102
}
330
2A
100
AcDbZombieObject
 90
      499
 91
      501
 93
      436
310
42CC9915DA5C99599C985B595049028333333333333E3BF0000000000000FB0107901411070040501600405405064090741402480A0340
1001
ACAD
1000
AcDbSavedByObjectVersion
1070
     0
  0
ACAD_PROXY_OBJECT
  5
30
102
{ACAD_REACTORS
330
2A
102
}
330
2A
100
AcDbZombieObject
 90
      499
 91
      501
 93
      436
310
42CCD915DA5C99599C985B595059028333333333333E3BF0000000000000FB0107901411070040501600405405064090741402480A0340
1001
ACAD
1000
AcDbSavedByObjectVersion
1070
     0
  0
ACAD_PROXY_OBJECT
  5
31
102
{ACAD_REACTORS
330
2A
102
}
330
2A
100
AcDbZombieObject
 90
      499
 91
      501
 93
      500
310
424CD108121A5919195B90640502408333333333333E3BF0000000000000FB01079024090700405020000000000001110200405405064090740C02480A0340
1001
ACAD
1000
AcDbSavedByObjectVersion
1070
     0
  0
ACAD_PROXY_OBJECT
  5
32
102
{ACAD_REACTORS
330
2A
102
}
330
2A
100
AcDbZombieObject
 90
      499
 91
      501
 93
      388
310
4150985CDA58D07406404333333333333E3BF0000000000000FB0107A41107004050150841D405064090741402480A0350
1001
ACAD
1000
AcDbSavedByObjectVersion
1070
     0
  0
ACAD_PROXY_OBJECT
  5
36
102
{ACAD_REACTORS
330
2A
102
}
330
2A
100
AcDbZombieObject
 90
      499
 91
      501
 93
      428
310
42109C9A59DA1D195B90C409028333333333333E3BF0000000000000FB010790141107004050150841D405064090741402480A029950
1001
ACAD
1000
AcDbSavedByObjectVersion
1070
     0
  0
ACAD_PROXY_OBJECT
  5
3A
102
{ACAD_REACTORS
330
2A
102
}
330
2A
100
AcDbZombieObject
 90
      499
 91
      501
 93
      452
310
42D0DBDB1BDC90DA185B99D95104090240C333333333333E3BF0000000000000FB0108901411070040501508421405064090741402480A0350
1001
ACAD
1000
AcDbSavedByObjectVersion
1070
     0
  0
ACAD_PROXY_OBJECT
  5
34
102
{ACAD_REACTORS
330
2A
102
}
330
2A
100
AcDbZombieObject
 90
      499
 91
      501
 93
      500
310
4290DBDB98D95C1D1D585B10940D028333333333333E3BF0000000000000FB0107902409070040501000000000000111010841D405064090740C02480A0340
1001
ACAD
1000
AcDbSavedByObjectVersion
1070
     0
  0
ACAD_PROXY_OBJECT
  5
35
102
{ACAD_REACTORS
330
2A
102
}
330
2A
100
AcDbZombieObject
 90
      499
 91
      501
 93
      412
310
40D11A5B50B409028333333333333E3BF0000000000000FB010790141107004050150841D405064090741402480A02677FFFFFD0
1001
ACAD
1000
AcDbSavedByObjectVersion
1070
     0
  0
ACAD_PROXY_OBJECT
  5
39
102
{ACAD_REACTORS
330
2A
102
}
330
2A
100
AcDbZombieObject
 90
      499
 91
      501
 93
      444
310
42D19858D95C185D1D195C9B90F409028333333333333E3BF0000000000000FB010790141107004050150841D405064090741402480A0350
1001
ACAD
1000
AcDbSavedByObjectVersion
1070
     0
  0
ACAD_PROXY_OBJECT
  5
2B
102
{ACAD_REACTORS
330
2A
102
}
330
2A
100
AcDbZombieObject
 90
      499
 91
      501
 93
      388
310
41119B185D240901404333333333333E3BF0000000000000F9010740A41107004050150841D405064090741402480A1B50
1001
ACAD
1000
AcDbSavedByObjectVersion
1070
     0
  0
ACAD_PROXY_OBJECT
  5
2C
102
{ACAD_REACTORS
330
2A
102
}
330
2A
100
AcDbZombieObject
 90
      499
 91
      501
 93
      476
310
43519B185D15DA5D1A115919D95CD0140901404333333333333E3BF0000000000000F9010740901411070040501600405405064090741402480A1B50
1001
ACAD
1000
AcDbSavedByObjectVersion
1070
     0
  0
ACAD_PROXY_OBJECT
  5
2D
102
{ACAD_REACTORS
330
2A
102
}
330
2A
100
AcDbZombieObject
 90
      499
 91
      501
 93
      412
310
41D1DBDD5C985D5910240902404333333333333E3BF0000000000000F9010740A411070040501641D405064090741402480A1B50
1001
ACAD
1000
AcDbSavedByObjectVersion
1070
     0
  0
ACAD_PROXY_OBJECT
  5
2E
102
{ACAD_REACTORS
330
2A
102
}
330
2A
100
AcDbZombieObject
 90
      499
 91
      501
 93
      500
310
4411DBDD5C985D5915DA5D1A115919D95CD0340902404333333333333E3BF0000000000000F9010740901411070040501600405405064090741402480A1B50
1001
ACAD
1000
AcDbSavedByObjectVersion
1070
     0
  0
ACAD_PROXY_OBJECT
  5
38
102
{ACAD_REACTORS
330
2A
102
}
330
2A
100
AcDbZombieObject
 90
      499
 91
      501
 93
      444
310
42D31A5B995C185D1D195C9B90E409028333333333333E3BF0000000000000FB010790141107004050750841D405064090741402483A0350
1001
ACAD
1000
AcDbSavedByObjectVersion
1070
     0
  0
ACAD_PROXY_OBJECT
  5
33
102
{ACAD_REACTORS
330
2A
102
}
330
2A
100
AcDbZombieObject
 90
      499
 91
      501
 93
      420
310
425499585B1A5CDD1A58D08409028333333333333E3BF0000000000000FB01079019070040501508421405064090741402480A1B40
1001
ACAD
1000
AcDbSavedByObjectVersion
1070
     0
  0
ACAD_PROXY_OBJECT
  5
37
102
{ACAD_REACTORS
330
2A
102
}
330
2A
100
AcDbZombieObject
 90
      499
 91
      501
 93
      412
310
41D51A1A58DAD95B90D409028333333333333E3BF0000000000000FB010790141107004050150C41D405064090741402480A0350
1001
ACAD
1000
AcDbSavedByObjectVersion
1070
     0
  0
DICTIONARYVAR
  5
10A
102
{ACAD_REACTORS
330
107
102
}
330
107
100
DictionaryVariables
280
     0
  1
2
  0
DICTIONARYVAR
  5
10B
102
{ACAD_REACTORS
330
107
102
}
330
107
100
DictionaryVariables
280
     0
  1
1
  0
DICTIONARY
  5
10E
330
3D
100
AcDbDictionary
  3
ACAD_XREC_ROUNDTRIP
360
10F
1001
ACAD
1000
TREAT_AS_HARD
1070
     1
  0
DICTIONARY
  5
10C
330
3C
100
AcDbDictionary
  3
ACAD_XREC_ROUNDTRIP
360
10D
1001
ACAD
1000
TREAT_AS_HARD
1070
     1
  0
DICTIONARY
  5
110
330
3E
100
AcDbDictionary
  3
ACAD_XREC_ROUNDTRIP
360
111
1001
ACAD
1000
TREAT_AS_HARD
1070
     1
  0
XRECORD
  5
10F
102
{ACAD_REACTORS
330
10E
102
}
330
10E
100
AcDbXrecord
102
MATERIAL
148
0.0
149
0.0
149
0.0
 93
        0
 94
      127
282
     0
 72
     1
 77
     1
171
     1
175
     1
179
     1
273
     0
  0
XRECORD
  5
10D
102
{ACAD_REACTORS
330
10C
102
}
330
10C
100
AcDbXrecord
102
MATERIAL
148
0.0
149
0.0
149
0.0
 93
        0
 94
      127
282
     0
 72
     1
 77
     1
171
     1
175
     1
179
     1
273
     0
  0
XRECORD
  5
111
102
{ACAD_REACTORS
330
110
102
}
330
110
100
AcDbXrecord
102
MATERIAL
148
0.0
149
0.0
149
0.0
 93
        0
 94
      127
282
     0
 72
     1
 77
     1
171
     1
175
     1
179
     1
273
     0
  0
ENDSEC
  0
EOF
