0
SECTION
2
HEADER
9
$INSUNITS
70
4
9
$ACADVER
1
AC1014
9
$HANDSEED
5
FFFF
0
ENDSEC
0
SECTION
2
TABLES
0
TABLE
2
VPORT
5
8
100
AcDbSymbolTable
0
ENDTAB
0
TABLE
2
LTYPE
5
5
100
AcDbSymbolTable
0
LTYPE
5
14
100
AcDbSymbolTableRecord
100
AcDbLinetypeTableRecord
2
BYBLOCK
70
0
0
LTYPE
5
15
100
AcDbSymbolTableRecord
100
AcDbLinetypeTableRecord
2
BYLAYER
70
0
0
ENDTAB
0
TABLE
2
LAYER
5
2
100
AcDbSymbolTable
70
2
0
LAYER
5
50
100
AcDbSymbolTableRecord
100
AcDbLayerTableRecord
2
0
70
0
6
CONTINUOUS
0
ENDTAB
0
TABLE
2
STYLE
5
3
100
AcDbSymbolTable
70
1
0
STYLE
5
11
100
AcDbSymbolTableRecord
100
AcDbTextStyleTableRecord
2
STANDARD
70
0
0
ENDTAB
0
TABLE
2
VIEW
5
6
100
AcDbSymbolTable
70
0
0
ENDTAB
0
TABLE
2
UCS
5
7
100
AcDbSymbolTable
70
0
0
ENDTAB
0
TABLE
2
APPID
5
9
100
AcDbSymbolTable
70
2
0
APPID
5
12
100
AcDbSymbolTableRecord
100
AcDbRegAppTableRecord
2
ACAD
70
0
0
ENDTAB
0
TABLE
2
DIMSTYLE
5
A
100
AcDbSymbolTable
70
1
0
ENDTAB
0
TABLE
2
BLOCK_RECORD
5
1
100
AcDbSymbolTable
70
1
0
BLOCK_RECORD
5
1F
100
AcDbSymbolTableRecord
100
AcDbBlockTableRecord
2
*MODEL_SPACE
0
BLOCK_RECORD
5
1B
100
AcDbSymbolTableRecord
100
AcDbBlockTableRecord
2
*PAPER_SPACE
0
ENDTAB
0
ENDSEC
0
SECTION
2
BLOCKS
0
BLOCK
5
20
100
AcDbEntity
100
AcDbBlockBegin
2
*MODEL_SPACE
0
ENDBLK
5
21
100
AcDbEntity
100
AcDbBlockEnd
0
BLOCK
5
1C
100
AcDbEntity
100
AcDbBlockBegin
2
*PAPER_SPACE
0
ENDBLK
5
1D
100
AcDbEntity
100
AcDbBlockEnd
0
ENDSEC
0
SECTION
2
ENTITIES
0
LINE
5
100
100
AcDbEntity
8
0
100
AcDbLine
10
29.969605906624626
20
138.77763051459783
30
0
11
-46.030394093373729
21
138.77763051459786
31
0
0
LINE
5
101
100
AcDbEntity
8
0
100
AcDbLine
10
-46.030394093373729
20
138.77763051459786
30
0
11
-46.030394093373729
21
-54.122369485401421
31
0
0
LINE
5
102
100
AcDbEntity
8
0
100
AcDbLine
10
29.969605906624615
20
-54.122369485401443
30
0
11
29.969605906624626
21
138.77763051459783
31
0
0
LWPOLYLINE
5
103
100
AcDbEntity
8
0
100
AcDbPolyline
90
12
70
1
43
0.0
10
-0.94539409337544322
20
-49.537369485401697
10
-0.94539409337544233
20
-43.80736948540347
42
0.4142135623730952
10
-2.5303940933754432
20
-42.222369485403476
10
-13.530394093375421
20
-42.222369485403476
42
0.41421356237310036
10
-15.115394093375436
20
-43.80736948540347
10
-15.115394093375436
20
-49.537369485401697
42
0.41421350432240056
10
-13.530394407518431
20
-51.122369485401663
10
-11.030394065088105
20
-51.12236948540162
10
-11.030394065088105
20
-54.122369485401443
10
-5.0303940933754108
20
-54.122369485401443
10
-5.0303940933754108
20
-51.122369485401656
10
-2.5303939273747038
20
-51.122369485401691
42
0.41421353169770581
0
LWPOLYLINE
5
104
100
AcDbEntity
8
0
100
AcDbPolyline
90
14
70
1
43
0.0
10
-0.94539409337544122
20
-49.537369485401697
42
-0.4142135623730952
10
-2.5303940933754432
20
-51.122369485401705
10
2.9696059066246763
20
-51.122369485401705
42
0.99999999999999989
10
2.9696059066246763
20
-47.952369485401704
10
2.9696059066246772
20
-35.172369485400878
10
-19.0303940933753
20
-35.172369485400878
10
-19.0303940933753
20
-47.952369485401576
42
0.99999999999999989
10
-19.0303940933753
20
-51.122369485401578
10
-13.530394093375435
20
-51.122369485401705
42
-0.41421356237309542
10
-15.115394093375436
20
-49.537369485401697
10
-15.115394093375432
20
-43.80736948540347
42
-0.41421356237310036
10
-13.530394093375421
20
-42.222369485403476
10
-2.5303940933754432
20
-42.222369485403476
42
-0.4142135623730952
10
-0.94539409337544245
20
-43.80736948540347
0
CIRCLE
5
105
100
AcDbEntity
8
0
100
AcDbCircle
10
-37.030394093375989
20
-45.122369485401492
30
0
40
1.5000000000000036
0
CIRCLE
5
106
100
AcDbEntity
8
0
100
AcDbCircle
10
20.969605906624572
20
-45.122369485401975
30
0
40
1.4999999999999991
0
CIRCLE
5
107
100
AcDbEntity
8
0
100
AcDbCircle
10
20.969605906625528
20
129.77763051459758
30
0
40
1.4999999999999991
0
CIRCLE
5
108
100
AcDbEntity
8
0
100
AcDbCircle
10
-37.030394093374916
20
129.77763051459786
30
0
40
1.5000000000000036
0
LWPOLYLINE
5
109
100
AcDbEntity
8
0
100
AcDbPolyline
90
44
70
1
43
0.0
10
-38.030394093375946
20
77.777630514597661
42
-0.41421356237309509
10
-34.030394093375946
20
81.777630514597661
10
-12.030394093375349
20
81.777630514597661
10
-12.030394093375349
20
85.777630514597675
10
26.469605906624672
20
85.777630514597675
10
26.469605906624672
20
119.77763051459766
42
0.99999999999999989
10
23.29960590662467
20
119.77763051459766
10
14.469605906626239
20
119.77763051459766
10
14.469605906626239
20
134.27763051459794
10
-30.530394093375332
20
134.27763051459794
10
-30.530394093375332
20
87.362630514597669
10
-40.445394093375945
20
87.362630514597669
42
0.41421356237309509
10
-42.030394093375946
20
85.777630514597675
10
-42.030394093375946
20
-35.172369485400878
10
-19.0303940933753
20
-35.172369485400878
10
-19.0303940933753
20
-47.952369485401576
42
0.99999999999999989
10
-19.0303940933753
20
-51.122369485401578
10
-41.030394093376017
20
-51.12236948540145
42
-0.4142135623730937
10
-43.030394093376017
20
-49.122369485401443
10
-43.030394093374873
20
133.77763051459792
42
-0.41421356237309109
10
-41.030394093374873
20
135.77763051459786
10
24.969605906625809
20
135.77763051459758
42
-0.41421356237309048
10
26.969605906625794
20
133.7776305145976
10
26.969605906624622
20
-49.122369485401848
42
-0.41421356237309309
10
24.969605906624615
20
-51.122369485401833
10
2.9696059066246772
20
-51.122369485401705
42
0.99999999999999989
10
2.9696059066246763
20
-47.952369485401704
10
2.9696059066246772
20
-35.172369485400878
10
14.469605906625718
20
-35.172369485400878
10
14.469605906625718
20
-20.672369485400637
10
23.299605906625111
20
-20.672369485400637
42
0.99999999999999989
10
26.469605906625112
20
-20.672369485400637
10
26.469605906625112
20
13.327630514599234
10
15.969605906625217
20
13.327630514599235
10
15.969605906625217
20
27.827630514599278
10
25.969605906625119
20
27.827630514599278
10
25.969605906625297
20
58.777630514598549
10
5.3206359179518614
20
58.777629923763122
42
1.0007689538249289
10
5.3206359179518481
20
54.777631105434097
10
15.969605906625265
20
54.777630514598542
10
15.969605906625253
20
51.827630514599264
42
-0.41421356237309309
10
11.969605906625249
20
47.827630514599292
10
-34.030394093375946
20
47.827630514599292
42
-0.41421356237309509
10
-38.030394093375946
20
51.827630514599292
0
LINE
5
110
100
AcDbEntity
8
0
100
AcDbLine
10
-11.030394065088105
20
-51.12236948540162
30
0
11
-5.0303940933754108
21
-51.122369485401656
31
0
0
LWPOLYLINE
5
111
100
AcDbEntity
8
0
100
AcDbPolyline
90
8
70
1
43
0.0
10
-41.030394093376017
20
-51.12236948540145
42
-0.4142135623730937
10
-43.030394093376017
20
-49.122369485401443
10
-43.030394093374873
20
133.77763051459789
42
-0.41421356237309637
10
-41.030394093374873
20
135.77763051459786
10
24.969605906625809
20
135.77763051459758
42
-0.41421356237309048
10
26.969605906625794
20
133.7776305145976
10
26.969605906624622
20
-49.122369485401819
42
-0.41421356237309698
10
24.969605906624615
20
-51.122369485401833
0
LWPOLYLINE
5
112
100
AcDbEntity
8
0
100
AcDbPolyline
90
4
70
1
43
0.0
10
-46.030394093373729
20
138.77763051459786
10
-46.030394093373729
20
-54.122369485401421
10
29.969605906624615
20
-54.122369485401443
10
29.969605906624626
20
138.77763051459783
0
LWPOLYLINE
5
113
100
AcDbEntity
8
0
100
AcDbPolyline
90
8
70
1
43
0.0
10
-34.030394093375946
20
-31.172369485400878
42
-0.41421356237309509
10
-38.030394093375946
20
-27.172369485400878
10
-38.030394093375946
20
23.827630514599278
42
-0.41421356237309537
10
-34.030394093375946
20
27.827630514599278
10
-17.530394093374792
20
27.827630514599278
10
-17.530394093374792
20
13.327630514599235
10
-30.530394093374788
20
13.327630514599234
10
-30.530394093374788
20
-31.172369485400885
0
LWPOLYLINE
5
114
100
AcDbEntity
8
0
100
AcDbPolyline
90
4
70
1
43
0.0
10
7.9696059066252065
20
13.327630514599235
10
7.9696059066252065
20
27.827630514599278
10
-3.5303940933747882
20
27.827630514599278
10
-3.5303940933747882
20
13.327630514599235
0
CIRCLE
5
115
100
AcDbEntity
8
0
100
AcDbCircle
10
-8.0303940933743014
20
104.7776305145828
30
0
40
14.050000000000001
0
CIRCLE
5
116
100
AcDbEntity
8
0
100
AcDbCircle
10
-8.0303940933744489
20
-5.6723694854007922
30
0
40
14.050000000000001
0
ENDSEC
0
SECTION
2
OBJECTS
0
DICTIONARY
5
C
100
AcDbDictionary
3
ACAD_GROUP
350
D
3
ACAD_MLINESTYLE
350
17
0
DICTIONARY
5
D
100
AcDbDictionary
0
DICTIONARY
5
1A
330
C
100
AcDbDictionary
0
DICTIONARY
5
17
100
AcDbDictionary
0
ENDSEC
0
EOF
