0
SECTION
2
HEADER
9
$INSUNITS
70
4
9
$ACADVER
1
AC1014
9
$HANDSEED
5
FFFF
0
ENDSEC
0
SECTION
2
TABLES
0
TABLE
2
VPORT
5
8
100
AcDbSymbolTable
0
ENDTAB
0
TABLE
2
LTYPE
5
5
100
AcDbSymbolTable
0
LTYPE
5
14
100
AcDbSymbolTableRecord
100
AcDbLinetypeTableRecord
2
BYBLOCK
70
0
0
LTYPE
5
15
100
AcDbSymbolTableRecord
100
AcDbLinetypeTableRecord
2
BYLAYER
70
0
0
ENDTAB
0
TABLE
2
LAYER
5
2
100
AcDbSymbolTable
70
2
0
LAYER
5
50
100
AcDbSymbolTableRecord
100
AcDbLayerTableRecord
2
0
70
0
6
CONTINUOUS
0
ENDTAB
0
TABLE
2
STYLE
5
3
100
AcDbSymbolTable
70
1
0
STYLE
5
11
100
AcDbSymbolTableRecord
100
AcDbTextStyleTableRecord
2
STANDARD
70
0
0
ENDTAB
0
TABLE
2
VIEW
5
6
100
AcDbSymbolTable
70
0
0
ENDTAB
0
TABLE
2
UCS
5
7
100
AcDbSymbolTable
70
0
0
ENDTAB
0
TABLE
2
APPID
5
9
100
AcDbSymbolTable
70
2
0
APPID
5
12
100
AcDbSymbolTableRecord
100
AcDbRegAppTableRecord
2
ACAD
70
0
0
ENDTAB
0
TABLE
2
DIMSTYLE
5
A
100
AcDbSymbolTable
70
1
0
ENDTAB
0
TABLE
2
BLOCK_RECORD
5
1
100
AcDbSymbolTable
70
1
0
BLOCK_RECORD
5
1F
100
AcDbSymbolTableRecord
100
AcDbBlockTableRecord
2
*MODEL_SPACE
0
BLOCK_RECORD
5
1B
100
AcDbSymbolTableRecord
100
AcDbBlockTableRecord
2
*PAPER_SPACE
0
ENDTAB
0
ENDSEC
0
SECTION
2
BLOCKS
0
BLOCK
5
20
100
AcDbEntity
100
AcDbBlockBegin
2
*MODEL_SPACE
0
ENDBLK
5
21
100
AcDbEntity
100
AcDbBlockEnd
0
BLOCK
5
1C
100
AcDbEntity
100
AcDbBlockBegin
2
*PAPER_SPACE
0
ENDBLK
5
1D
100
AcDbEntity
100
AcDbBlockEnd
0
ENDSEC
0
SECTION
2
ENTITIES
0
LWPOLYLINE
5
100
100
AcDbEntity
8
0
100
AcDbPolyline
90
8
70
1
43
0.0
10
-1.8049333358165864
20
49.649921752944991
10
8.1950666641833863
20
49.649921752945019
10
8.1950666641833863
20
52.649921752945033
10
-1.8049333358165915
20
52.64992175294492
10
-1.804933335816592
20
53.399921752945005
10
-12.333178751313023
20
53.399921752944991
42
12.382726771781973
10
-12.345102755138431
20
48.826577389551595
10
-1.8049333358165842
20
48.826577389551595
0
CIRCLE
5
101
100
AcDbEntity
8
0
100
AcDbCircle
10
-61.40442603078354
20
-29.850078247054732
30
0
40
1.5000000000000036
0
CIRCLE
5
102
100
AcDbEntity
8
0
100
AcDbCircle
10
8.5955739692169697
20
161.04992175294441
30
0
40
1.4999999999999991
0
CIRCLE
5
103
100
AcDbEntity
8
0
100
AcDbCircle
10
8.595573969216936
20
-29.850078247054753
30
0
40
1.5000000000000002
0
CIRCLE
5
104
100
AcDbEntity
8
0
100
AcDbCircle
10
-61.40442603078354
20
161.04992175294441
30
0
40
1.5000000000000036
0
LWPOLYLINE
5
105
100
AcDbEntity
8
0
100
AcDbPolyline
90
8
70
1
43
0.0
10
-67.404426030783526
20
-37.850078247054789
42
-0.41421356237309176
10
-69.40442603078354
20
-35.850078247054782
10
-69.404426030783497
20
167.04992175294444
42
-0.41421356237310542
10
-67.40442603078354
20
169.04992175294444
10
14.595573969217019
20
169.04992175294441
42
-0.4142135623730967
10
16.595573969217021
20
167.04992175294444
10
16.59557396921705
20
-35.850078247054888
42
-0.41421356237309409
10
14.595573969217046
20
-37.850078247054888
0
LWPOLYLINE
5
106
100
AcDbEntity
8
0
100
AcDbPolyline
90
8
70
1
43
0.0
10
-67.404426030783526
20
-37.850078247054782
42
-0.41421356237309509
10
-69.404426030783526
20
-35.850078247054782
10
-69.404426030783526
20
167.04992175294444
42
-0.4142135623731002
10
-67.404426030783526
20
169.04992175294444
10
14.595573969217019
20
169.04992175294441
42
-0.41421356237309509
10
16.595573969217021
20
167.04992175294444
10
16.595573969217053
20
-35.850078247054888
42
-0.41421356237309537
10
14.595573969217046
20
-37.850078247054888
0
CIRCLE
5
107
100
AcDbEntity
8
0
100
AcDbCircle
10
-61.40442603078354
20
161.04992175294441
30
0
40
1.5000000000000036
0
CIRCLE
5
108
100
AcDbEntity
8
0
100
AcDbCircle
10
8.595573969216936
20
-29.850078247054753
30
0
40
1.5000000000000002
0
CIRCLE
5
109
100
AcDbEntity
8
0
100
AcDbCircle
10
8.5955739692169697
20
161.04992175294441
30
0
40
1.4999999999999991
0
CIRCLE
5
110
100
AcDbEntity
8
0
100
AcDbCircle
10
-61.40442603078354
20
-29.850078247054732
30
0
40
1.5000000000000036
0
LWPOLYLINE
5
111
100
AcDbEntity
8
0
100
AcDbPolyline
90
8
70
1
43
0.0
10
-1.8049333358165858
20
49.649921752944991
10
-1.8049333358165853
20
48.826577389551595
10
-12.345102755138424
20
48.826577389551602
42
-12.382726771781973
10
-12.333178751313024
20
53.399921752944991
10
-1.804933335816592
20
53.399921752945005
10
-1.804933335816592
20
52.64992175294492
10
8.1950666641833863
20
52.649921752945033
10
8.195066664183388
20
49.649921752945019
0
ENDSEC
0
SECTION
2
OBJECTS
0
DICTIONARY
5
C
100
AcDbDictionary
3
ACAD_GROUP
350
D
3
ACAD_MLINESTYLE
350
17
0
DICTIONARY
5
D
100
AcDbDictionary
0
DICTIONARY
5
1A
330
C
100
AcDbDictionary
0
DICTIONARY
5
17
100
AcDbDictionary
0
ENDSEC
0
EOF
