0
SECTION
2
HEADER
9
$INSUNITS
70
4
9
$ACADVER
1
AC1014
9
$HANDSEED
5
FFFF
0
ENDSEC
0
SECTION
2
TABLES
0
TABLE
2
VPORT
5
8
100
AcDbSymbolTable
0
ENDTAB
0
TABLE
2
LTYPE
5
5
100
AcDbSymbolTable
0
LTYPE
5
14
100
AcDbSymbolTableRecord
100
AcDbLinetypeTableRecord
2
BYBLOCK
70
0
0
LTYPE
5
15
100
AcDbSymbolTableRecord
100
AcDbLinetypeTableRecord
2
BYLAYER
70
0
0
ENDTAB
0
TABLE
2
LAYER
5
2
100
AcDbSymbolTable
70
2
0
LAYER
5
50
100
AcDbSymbolTableRecord
100
AcDbLayerTableRecord
2
0
70
0
6
CONTINUOUS
0
ENDTAB
0
TABLE
2
STYLE
5
3
100
AcDbSymbolTable
70
1
0
STYLE
5
11
100
AcDbSymbolTableRecord
100
AcDbTextStyleTableRecord
2
STANDARD
70
0
0
ENDTAB
0
TABLE
2
VIEW
5
6
100
AcDbSymbolTable
70
0
0
ENDTAB
0
TABLE
2
UCS
5
7
100
AcDbSymbolTable
70
0
0
ENDTAB
0
TABLE
2
APPID
5
9
100
AcDbSymbolTable
70
2
0
APPID
5
12
100
AcDbSymbolTableRecord
100
AcDbRegAppTableRecord
2
ACAD
70
0
0
ENDTAB
0
TABLE
2
DIMSTYLE
5
A
100
AcDbSymbolTable
70
1
0
ENDTAB
0
TABLE
2
BLOCK_RECORD
5
1
100
AcDbSymbolTable
70
1
0
BLOCK_RECORD
5
1F
100
AcDbSymbolTableRecord
100
AcDbBlockTableRecord
2
*MODEL_SPACE
0
BLOCK_RECORD
5
1B
100
AcDbSymbolTableRecord
100
AcDbBlockTableRecord
2
*PAPER_SPACE
0
ENDTAB
0
ENDSEC
0
SECTION
2
BLOCKS
0
BLOCK
5
20
100
AcDbEntity
100
AcDbBlockBegin
2
*MODEL_SPACE
0
ENDBLK
5
21
100
AcDbEntity
100
AcDbBlockEnd
0
BLOCK
5
1C
100
AcDbEntity
100
AcDbBlockBegin
2
*PAPER_SPACE
0
ENDBLK
5
1D
100
AcDbEntity
100
AcDbBlockEnd
0
ENDSEC
0
SECTION
2
ENTITIES
0
LWPOLYLINE
5
100
100
AcDbEntity
8
0
100
AcDbPolyline
90
8
70
1
43
0.0
10
-41.030394093376017
20
-51.12236948540145
42
-0.41421356237309637
10
-43.030394093376017
20
-49.122369485401443
10
-43.030394093374881
20
133.77763051459792
42
-0.41421356237308726
10
-41.030394093374873
20
135.77763051459786
10
24.969605906625809
20
135.77763051459758
42
-0.41421356237308854
10
26.969605906625794
20
133.7776305145976
10
26.969605906624622
20
-49.122369485401833
42
-0.41421356237309825
10
24.969605906624615
20
-51.122369485401833
0
LWPOLYLINE
5
101
100
AcDbEntity
8
0
100
AcDbPolyline
90
4
70
1
43
0.0
10
-46.030394093373729
20
138.77763051459786
10
29.969605906624626
20
138.77763051459783
10
29.969605906624615
20
-54.122369485401443
10
-46.030394093373729
20
-54.122369485401421
0
CIRCLE
5
102
100
AcDbEntity
8
0
100
AcDbCircle
10
20.969605906624572
20
-45.122369485401975
30
0
40
1.4999999999999991
0
CIRCLE
5
103
100
AcDbEntity
8
0
100
AcDbCircle
10
-8.0303940933751061
20
56.777630514598044
30
0
40
14.25
0
LWPOLYLINE
5
104
100
AcDbEntity
8
0
100
AcDbPolyline
90
16
70
1
43
0.0
10
14.469605906626235
20
130.27763051459794
10
14.469605906626235
20
134.27763051459794
10
-30.530394093375335
20
134.27763051459794
10
-30.530394093375335
20
130.27763051459794
10
-35.530394093374468
20
130.27763051459794
42
0.013411405761255525
10
-35.615376538593907
20
130.27535063641491
42
1.9104536188687522
10
-37.060180156204972
20
128.27792628026992
42
0.33863901237230126
10
-35.530394093374468
20
127.10763051459791
10
-35.530394093374468
20
78.447630514597634
42
0.99999999999999989
10
-35.530394093374476
20
75.277630514597632
10
19.469605906625862
20
75.277630514597632
42
0.99999999999999989
10
19.469605906625862
20
78.447630514597634
10
19.469605906625862
20
127.10763051459791
42
0.33863901236799998
10
20.999391969456298
20
128.27792628026967
42
1.9104536188679364
10
19.554588351844643
20
130.27535063641497
42
0.013411405761367361
10
19.469605906625862
20
130.27763051459794
0
LWPOLYLINE
5
105
100
AcDbEntity
8
0
100
AcDbPolyline
90
12
70
1
43
0.0
10
-30.530394093374795
20
-31.172369485400875
10
-30.530394093374795
20
-35.172369485400871
10
14.469605906625709
20
-35.172369485400871
10
14.469605906625709
20
-31.172369485400875
10
19.469605906625635
20
-31.172369485400878
42
0.99999999999999989
10
19.469605906625635
20
-28.002369485400873
10
19.469605906625635
20
20.657630514599283
42
0.99999999999999989
10
19.469605906625631
20
23.827630514599285
10
-35.530394093374525
20
23.827630514599285
42
0.99999999999999989
10
-35.530394093374525
20
20.65763051459928
10
-35.530394093374525
20
-28.002369485400877
42
0.99999999999999989
10
-35.530394093374525
20
-31.172369485400878
0
LWPOLYLINE
5
106
100
AcDbEntity
8
0
100
AcDbPolyline
90
8
70
1
43
0.0
10
-43.030394093376017
20
-49.122369485401443
10
-43.030394093374881
20
133.77763051459792
42
-0.41421356237308726
10
-41.030394093374873
20
135.77763051459786
10
24.969605906625809
20
135.77763051459758
42
-0.41421356237308854
10
26.969605906625791
20
133.7776305145976
10
26.969605906624622
20
-49.122369485401833
42
-0.41421356237309825
10
24.969605906624615
20
-51.122369485401833
10
-41.030394093376017
20
-51.12236948540145
42
-0.41421356237309637
0
CIRCLE
5
107
100
AcDbEntity
8
0
100
AcDbCircle
10
20.969605906624572
20
-45.122369485401975
30
0
40
1.4999999999999991
0
CIRCLE
5
108
100
AcDbEntity
8
0
100
AcDbCircle
10
-37.030394093375989
20
-45.122369485401492
30
0
40
1.5000000000000036
0
ARC
5
109
100
AcDbEntity
8
0
100
AcDbCircle
10
-37.030394093374916
20
129.77763051459786
30
0
40
1.500000000000004
100
AcDbArc
50
19.378879384162964
51
268.86218142277306
0
ARC
5
110
100
AcDbEntity
8
0
100
AcDbCircle
10
20.969605906625528
20
129.77763051459758
30
0
40
1.5000000000000049
100
AcDbArc
50
-88.862181422745806
51
160.62112061582329
0
LINE
5
111
100
AcDbEntity
8
0
100
AcDbLine
10
-35.530394093374525
20
-5.6723694854007967
30
0
11
19.469605906625635
21
-5.6723694854007949
31
0
0
LINE
5
112
100
AcDbEntity
8
0
100
AcDbLine
10
-35.530394093374468
20
104.77763051463441
30
0
11
19.469605906625862
21
104.77763051459777
31
0
0
CIRCLE
5
113
100
AcDbEntity
8
0
100
AcDbCircle
10
-8.0303940933744489
20
-5.6723694854007958
30
0
40
4.0500000000000007
0
CIRCLE
5
114
100
AcDbEntity
8
0
100
AcDbCircle
10
-8.0303940933743014
20
104.77763051461609
30
0
40
4.0500000000000007
0
CIRCLE
5
115
100
AcDbEntity
8
0
100
AcDbCircle
10
-8.0303940933744489
20
-5.6723694854007958
30
0
40
14.050000000000001
0
CIRCLE
5
116
100
AcDbEntity
8
0
100
AcDbCircle
10
-8.0303940933743014
20
104.77763051461609
30
0
40
14.050000000000001
0
ENDSEC
0
SECTION
2
OBJECTS
0
DICTIONARY
5
C
100
AcDbDictionary
3
ACAD_GROUP
350
D
3
ACAD_MLINESTYLE
350
17
0
DICTIONARY
5
D
100
AcDbDictionary
0
DICTIONARY
5
1A
330
C
100
AcDbDictionary
0
DICTIONARY
5
17
100
AcDbDictionary
0
ENDSEC
0
EOF
